<svg xmlns="http://www.w3.org/2000/svg" viewBox="0 0 1400 900"><path d="M-19.1,-24.9L-38.1,-16.6L-57.2,-30.0L-57.2,-52.0L-38.1,-60.6L-19.1,-46.9ZM19.1,-19.1L0.0,-11.0L-19.1,-24.9L-19.1,-46.9L-0.0,-55.0L19.1,-41.1ZM57.2,-14.0L38.1,-5.4L19.1,-19.1L19.1,-41.1L38.1,-49.4L57.2,-36.0ZM95.3,-10.4L76.2,-0.9L57.2,-14.0L57.2,-36.0L76.2,-44.9L95.3,-32.4ZM133.4,-9.0L114.3,1.6L95.3,-10.4L95.3,-32.4L114.3,-42.4L133.4,-31.0ZM171.5,-10.2L152.4,1.7L133.4,-9.0L133.4,-31.0L152.4,-42.3L171.5,-32.2ZM209.6,-13.6L190.5,-0.6L171.5,-10.2L171.5,-32.2L190.5,-44.6L209.6,-35.6ZM247.7,-18.7L228.6,-5.0L209.6,-13.6L209.6,-35.6L228.6,-49.0L247.7,-40.7ZM285.8,-24.4L266.7,-10.5L247.7,-18.7L247.7,-40.7L266.7,-54.5L285.8,-46.4ZM323.9,-29.6L304.8,-16.1L285.8,-24.4L285.8,-46.4L304.8,-60.1L323.9,-51.6ZM362.0,-33.4L342.9,-20.8L323.9,-29.6L323.9,-51.6L342.9,-64.8L362.0,-55.4ZM400.1,-35.0L381.1,-23.5L362.0,-33.4L362.0,-55.4L381.1,-67.5L400.1,-57.0ZM438.2,-34.0L419.2,-23.8L400.1,-35.0L400.1,-57.0L419.2,-67.8L438.2,-56.0ZM476.3,-30.8L457.3,-21.7L438.2,-34.0L438.2,-56.0L457.3,-65.7L476.3,-52.8ZM514.4,-25.8L495.4,-17.5L476.3,-30.8L476.3,-52.8L495.4,-61.5L514.4,-47.8ZM552.5,-20.1L533.5,-12.0L514.4,-25.8L514.4,-47.8L533.5,-56.0L552.5,-42.1ZM590.6,-14.8L571.6,-6.3L552.5,-20.1L552.5,-42.1L571.6,-50.3L590.6,-36.8ZM628.7,-10.8L609.7,-1.6L590.6,-14.8L590.6,-36.8L609.7,-45.6L628.7,-32.8ZM666.8,-9.1L647.8,1.4L628.7,-10.8L628.7,-32.8L647.8,-42.6L666.8,-31.1ZM704.9,-9.8L685.9,1.9L666.8,-9.1L666.8,-31.1L685.9,-42.1L704.9,-31.8ZM743.0,-12.9L724.0,-0.1L704.9,-9.8L704.9,-31.8L724.0,-44.1L743.0,-34.9ZM781.2,-17.7L762.1,-4.1L743.0,-12.9L743.0,-34.9L762.1,-48.1L781.2,-39.7ZM819.3,-23.4L800.2,-9.5L781.2,-17.7L781.2,-39.7L800.2,-53.5L819.3,-45.4ZM857.4,-28.8L838.3,-15.2L819.3,-23.4L819.3,-45.4L838.3,-59.2L857.4,-50.8ZM895.5,-32.9L876.4,-20.1L857.4,-28.8L857.4,-50.8L876.4,-64.1L895.5,-54.9ZM933.6,-34.9L914.5,-23.2L895.5,-32.9L895.5,-54.9L914.5,-67.2L933.6,-56.9ZM971.7,-34.4L952.6,-23.9L933.6,-34.9L933.6,-56.9L952.6,-67.9L971.7,-56.4ZM1009.8,-31.5L990.7,-22.2L971.7,-34.4L971.7,-56.4L990.7,-66.2L1009.8,-53.5ZM1047.9,-26.7L1028.8,-18.3L1009.8,-31.5L1009.8,-53.5L1028.8,-62.3L1047.9,-48.7ZM1086.0,-21.1L1066.9,-13.0L1047.9,-26.7L1047.9,-48.7L1066.9,-57.0L1086.0,-43.1ZM1124.1,-15.6L1105.0,-7.3L1086.0,-21.1L1086.0,-43.1L1105.0,-51.3L1124.1,-37.6ZM1162.2,-11.4L1143.2,-2.3L1124.1,-15.6L1124.1,-37.6L1143.2,-46.3L1162.2,-33.4ZM1200.3,-9.2L1181.3,1.0L1162.2,-11.4L1162.2,-33.4L1181.3,-43.0L1200.3,-31.2ZM1238.4,-9.5L1219.4,2.0L1200.3,-9.2L1200.3,-31.2L1219.4,-42.0L1238.4,-31.5ZM1276.5,-12.2L1257.5,0.4L1238.4,-9.5L1238.4,-31.5L1257.5,-43.6L1276.5,-34.2ZM1314.6,-16.8L1295.6,-3.3L1276.5,-12.2L1276.5,-34.2L1295.6,-47.3L1314.6,-38.8ZM1352.7,-22.4L1333.7,-8.5L1314.6,-16.8L1314.6,-38.8L1333.7,-52.5L1352.7,-44.4ZM1390.8,-27.9L1371.8,-14.3L1352.7,-22.4L1352.7,-44.4L1371.8,-58.3L1390.8,-49.9ZM1428.9,-32.3L1409.9,-19.3L1390.8,-27.9L1390.8,-49.9L1409.9,-63.3L1428.9,-54.3ZM0.0,11.0L-19.1,19.1L-38.1,5.4L-38.1,-16.6L-19.1,-24.9L-0.0,-11.0ZM38.1,16.6L19.1,24.9L-0.0,11.0L0.0,-11.0L19.1,-19.1L38.1,-5.4ZM76.2,21.1L57.2,30.0L38.1,16.6L38.1,-5.4L57.2,-14.0L76.2,-0.9ZM114.3,23.6L95.3,33.6L76.2,21.1L76.2,-0.9L95.3,-10.4L114.3,1.6ZM152.4,23.7L133.4,35.0L114.3,23.6L114.3,1.6L133.4,-9.0L152.4,1.7ZM190.5,21.4L171.5,33.8L152.4,23.7L152.4,1.7L171.5,-10.2L190.5,-0.6ZM228.6,17.0L209.6,30.4L190.5,21.4L190.5,-0.6L209.6,-13.6L228.6,-5.0ZM266.7,11.5L247.7,25.3L228.6,17.0L228.6,-5.0L247.7,-18.7L266.7,-10.5ZM304.8,5.9L285.8,19.6L266.7,11.5L266.7,-10.5L285.8,-24.4L304.8,-16.1ZM342.9,1.2L323.9,14.4L304.8,5.9L304.8,-16.1L323.9,-29.6L342.9,-20.8ZM381.1,-1.5L362.0,10.6L342.9,1.2L342.9,-20.8L362.0,-33.4L381.1,-23.5ZM419.2,-1.8L400.1,9.0L381.1,-1.5L381.1,-23.5L400.1,-35.0L419.2,-23.8ZM457.3,0.3L438.2,10.0L419.2,-1.8L419.2,-23.8L438.2,-34.0L457.3,-21.7ZM495.4,4.5L476.3,13.2L457.3,0.3L457.3,-21.7L476.3,-30.8L495.4,-17.5ZM533.5,10.0L514.4,18.2L495.4,4.5L495.4,-17.5L514.4,-25.8L533.5,-12.0ZM571.6,15.7L552.5,23.9L533.5,10.0L533.5,-12.0L552.5,-20.1L571.6,-6.3ZM609.7,20.4L590.6,29.2L571.6,15.7L571.6,-6.3L590.6,-14.8L609.7,-1.6ZM647.8,23.4L628.7,33.2L609.7,20.4L609.7,-1.6L628.7,-10.8L647.8,1.4ZM685.9,23.9L666.8,34.9L647.8,23.4L647.8,1.4L666.8,-9.1L685.9,1.9ZM724.0,21.9L704.9,34.2L685.9,23.9L685.9,1.9L704.9,-9.8L724.0,-0.1ZM762.1,17.9L743.0,31.1L724.0,21.9L724.0,-0.1L743.0,-12.9L762.1,-4.1ZM800.2,12.5L781.2,26.3L762.1,17.9L762.1,-4.1L781.2,-17.7L800.2,-9.5ZM838.3,6.8L819.3,20.6L800.2,12.5L800.2,-9.5L819.3,-23.4L838.3,-15.2ZM876.4,1.9L857.4,15.2L838.3,6.8L838.3,-15.2L857.4,-28.8L876.4,-20.1ZM914.5,-1.2L895.5,11.1L876.4,1.9L876.4,-20.1L895.5,-32.9L914.5,-23.2ZM952.6,-1.9L933.6,9.1L914.5,-1.2L914.5,-23.2L933.6,-34.9L952.6,-23.9ZM990.7,-0.2L971.7,9.6L952.6,-1.9L952.6,-23.9L971.7,-34.4L990.7,-22.2ZM1028.8,3.7L1009.8,12.5L990.7,-0.2L990.7,-22.2L1009.8,-31.5L1028.8,-18.3ZM1066.9,9.0L1047.9,17.3L1028.8,3.7L1028.8,-18.3L1047.9,-26.7L1066.9,-13.0ZM1105.0,14.7L1086.0,22.9L1066.9,9.0L1066.9,-13.0L1086.0,-21.1L1105.0,-7.3ZM1143.2,19.7L1124.1,28.4L1105.0,14.7L1105.0,-7.3L1124.1,-15.6L1143.2,-2.3ZM1181.3,23.0L1162.2,32.6L1143.2,19.7L1143.2,-2.3L1162.2,-11.4L1181.3,1.0ZM1219.4,24.0L1200.3,34.8L1181.3,23.0L1181.3,1.0L1200.3,-9.2L1219.4,2.0ZM1257.5,22.4L1238.4,34.5L1219.4,24.0L1219.4,2.0L1238.4,-9.5L1257.5,0.4ZM1295.6,18.7L1276.5,31.8L1257.5,22.4L1257.5,0.4L1276.5,-12.2L1295.6,-3.3ZM1333.7,13.5L1314.6,27.2L1295.6,18.7L1295.6,-3.3L1314.6,-16.8L1333.7,-8.5ZM1371.8,7.7L1352.7,21.6L1333.7,13.5L1333.7,-8.5L1352.7,-22.4L1371.8,-14.3ZM1409.9,2.7L1390.8,16.1L1371.8,7.7L1371.8,-14.3L1390.8,-27.9L1409.9,-19.3ZM1448.0,-0.8L1428.9,11.7L1409.9,2.7L1409.9,-19.3L1428.9,-32.3L1448.0,-22.8ZM-19.1,41.1L-38.1,49.4L-57.2,36.0L-57.2,14.0L-38.1,5.4L-19.1,19.1ZM19.1,46.9L0.0,55.0L-19.1,41.1L-19.1,19.1L-0.0,11.0L19.1,24.9ZM57.2,52.0L38.1,60.6L19.1,46.9L19.1,24.9L38.1,16.6L57.2,30.0ZM95.3,55.6L76.2,65.1L57.2,52.0L57.2,30.0L76.2,21.1L95.3,33.6ZM133.4,57.0L114.3,67.6L95.3,55.6L95.3,33.6L114.3,23.6L133.4,35.0ZM171.5,55.8L152.4,67.7L133.4,57.0L133.4,35.0L152.4,23.7L171.5,33.8ZM209.6,52.4L190.5,65.4L171.5,55.8L171.5,33.8L190.5,21.4L209.6,30.4ZM247.7,47.3L228.6,61.0L209.6,52.4L209.6,30.4L228.6,17.0L247.7,25.3ZM285.8,41.6L266.7,55.5L247.7,47.3L247.7,25.3L266.7,11.5L285.8,19.6ZM323.9,36.4L304.8,49.9L285.8,41.6L285.8,19.6L304.8,5.9L323.9,14.4ZM362.0,32.6L342.9,45.2L323.9,36.4L323.9,14.4L342.9,1.2L362.0,10.6ZM400.1,31.0L381.1,42.5L362.0,32.6L362.0,10.6L381.1,-1.5L400.1,9.0ZM438.2,32.0L419.2,42.2L400.1,31.0L400.1,9.0L419.2,-1.8L438.2,10.0ZM476.3,35.2L457.3,44.3L438.2,32.0L438.2,10.0L457.3,0.3L476.3,13.2ZM514.4,40.2L495.4,48.5L476.3,35.2L476.3,13.2L495.4,4.5L514.4,18.2ZM552.5,45.9L533.5,54.0L514.4,40.2L514.4,18.2L533.5,10.0L552.5,23.9ZM590.6,51.2L571.6,59.7L552.5,45.9L552.5,23.9L571.6,15.7L590.6,29.2ZM628.7,55.2L609.7,64.4L590.6,51.2L590.6,29.2L609.7,20.4L628.7,33.2ZM666.8,56.9L647.8,67.4L628.7,55.2L628.7,33.2L647.8,23.4L666.8,34.9ZM704.9,56.2L685.9,67.9L666.8,56.9L666.8,34.9L685.9,23.9L704.9,34.2ZM743.0,53.1L724.0,65.9L704.9,56.2L704.9,34.2L724.0,21.9L743.0,31.1ZM781.2,48.3L762.1,61.9L743.0,53.1L743.0,31.1L762.1,17.9L781.2,26.3ZM819.3,42.6L800.2,56.5L781.2,48.3L781.2,26.3L800.2,12.5L819.3,20.6ZM857.4,37.2L838.3,50.8L819.3,42.6L819.3,20.6L838.3,6.8L857.4,15.2ZM895.5,33.1L876.4,45.9L857.4,37.2L857.4,15.2L876.4,1.9L895.5,11.1ZM933.6,31.1L914.5,42.8L895.5,33.1L895.5,11.1L914.5,-1.2L933.6,9.1ZM971.7,31.6L952.6,42.1L933.6,31.1L933.6,9.1L952.6,-1.9L971.7,9.6ZM1009.8,34.5L990.7,43.8L971.7,31.6L971.7,9.6L990.7,-0.2L1009.8,12.5ZM1047.9,39.3L1028.8,47.7L1009.8,34.5L1009.8,12.5L1028.8,3.7L1047.9,17.3ZM1086.0,44.9L1066.9,53.0L1047.9,39.3L1047.9,17.3L1066.9,9.0L1086.0,22.9ZM1124.1,50.4L1105.0,58.7L1086.0,44.9L1086.0,22.9L1105.0,14.7L1124.1,28.4ZM1162.2,54.6L1143.2,63.7L1124.1,50.4L1124.1,28.4L1143.2,19.7L1162.2,32.6ZM1200.3,56.8L1181.3,67.0L1162.2,54.6L1162.2,32.6L1181.3,23.0L1200.3,34.8ZM1238.4,56.5L1219.4,68.0L1200.3,56.8L1200.3,34.8L1219.4,24.0L1238.4,34.5ZM1276.5,53.8L1257.5,66.4L1238.4,56.5L1238.4,34.5L1257.5,22.4L1276.5,31.8ZM1314.6,49.2L1295.6,62.7L1276.5,53.8L1276.5,31.8L1295.6,18.7L1314.6,27.2ZM1352.7,43.6L1333.7,57.5L1314.6,49.2L1314.6,27.2L1333.7,13.5L1352.7,21.6ZM1390.8,38.1L1371.8,51.7L1352.7,43.6L1352.7,21.6L1371.8,7.7L1390.8,16.1ZM1428.9,33.7L1409.9,46.7L1390.8,38.1L1390.8,16.1L1409.9,2.7L1428.9,11.7ZM0.0,77.0L-19.1,85.1L-38.1,71.4L-38.1,49.4L-19.1,41.1L-0.0,55.0ZM38.1,82.6L19.1,90.9L-0.0,77.0L0.0,55.0L19.1,46.9L38.1,60.6ZM76.2,87.1L57.2,96.0L38.1,82.6L38.1,60.6L57.2,52.0L76.2,65.1ZM114.3,89.6L95.3,99.6L76.2,87.1L76.2,65.1L95.3,55.6L114.3,67.6ZM152.4,89.7L133.4,101.0L114.3,89.6L114.3,67.6L133.4,57.0L152.4,67.7ZM190.5,87.4L171.5,99.8L152.4,89.7L152.4,67.7L171.5,55.8L190.5,65.4ZM228.6,83.0L209.6,96.4L190.5,87.4L190.5,65.4L209.6,52.4L228.6,61.0ZM266.7,77.5L247.7,91.3L228.6,83.0L228.6,61.0L247.7,47.3L266.7,55.5ZM304.8,71.9L285.8,85.6L266.7,77.5L266.7,55.5L285.8,41.6L304.8,49.9ZM342.9,67.2L323.9,80.4L304.8,71.9L304.8,49.9L323.9,36.4L342.9,45.2ZM381.1,64.5L362.0,76.6L342.9,67.2L342.9,45.2L362.0,32.6L381.1,42.5ZM419.2,64.2L400.1,75.0L381.1,64.5L381.1,42.5L400.1,31.0L419.2,42.2ZM457.3,66.3L438.2,76.0L419.2,64.2L419.2,42.2L438.2,32.0L457.3,44.3ZM495.4,70.5L476.3,79.2L457.3,66.3L457.3,44.3L476.3,35.2L495.4,48.5ZM533.5,76.0L514.4,84.2L495.4,70.5L495.4,48.5L514.4,40.2L533.5,54.0ZM571.6,81.7L552.5,89.9L533.5,76.0L533.5,54.0L552.5,45.9L571.6,59.7ZM609.7,86.4L590.6,95.2L571.6,81.7L571.6,59.7L590.6,51.2L609.7,64.4ZM647.8,89.4L628.7,99.2L609.7,86.4L609.7,64.4L628.7,55.2L647.8,67.4ZM685.9,89.9L666.8,100.9L647.8,89.4L647.8,67.4L666.8,56.9L685.9,67.9ZM724.0,87.9L704.9,100.2L685.9,89.9L685.9,67.9L704.9,56.2L724.0,65.9ZM762.1,83.9L743.0,97.1L724.0,87.9L724.0,65.9L743.0,53.1L762.1,61.9ZM800.2,78.5L781.2,92.3L762.1,83.9L762.1,61.9L781.2,48.3L800.2,56.5ZM838.3,72.8L819.3,86.6L800.2,78.5L800.2,56.5L819.3,42.6L838.3,50.8ZM876.4,67.9L857.4,81.2L838.3,72.8L838.3,50.8L857.4,37.2L876.4,45.9ZM914.5,64.8L895.5,77.1L876.4,67.9L876.4,45.9L895.5,33.1L914.5,42.8ZM952.6,64.1L933.6,75.1L914.5,64.8L914.5,42.8L933.6,31.1L952.6,42.1ZM990.7,65.8L971.7,75.6L952.6,64.1L952.6,42.1L971.7,31.6L990.7,43.8ZM1028.8,69.7L1009.8,78.5L990.7,65.8L990.7,43.8L1009.8,34.5L1028.8,47.7ZM1066.9,75.0L1047.9,83.3L1028.8,69.7L1028.8,47.7L1047.9,39.3L1066.9,53.0ZM1105.0,80.7L1086.0,88.9L1066.9,75.0L1066.9,53.0L1086.0,44.9L1105.0,58.7ZM1143.2,85.7L1124.1,94.4L1105.0,80.7L1105.0,58.7L1124.1,50.4L1143.2,63.7ZM1181.3,89.0L1162.2,98.6L1143.2,85.7L1143.2,63.7L1162.2,54.6L1181.3,67.0ZM1219.4,90.0L1200.3,100.8L1181.3,89.0L1181.3,67.0L1200.3,56.8L1219.4,68.0ZM1257.5,88.4L1238.4,100.5L1219.4,90.0L1219.4,68.0L1238.4,56.5L1257.5,66.4ZM1295.6,84.7L1276.5,97.8L1257.5,88.4L1257.5,66.4L1276.5,53.8L1295.6,62.7ZM1333.7,79.5L1314.6,93.2L1295.6,84.7L1295.6,62.7L1314.6,49.2L1333.7,57.5ZM1371.8,73.7L1352.7,87.6L1333.7,79.5L1333.7,57.5L1352.7,43.6L1371.8,51.7ZM1409.9,68.7L1390.8,82.1L1371.8,73.7L1371.8,51.7L1390.8,38.1L1409.9,46.7ZM1448.0,65.2L1428.9,77.7L1409.9,68.7L1409.9,46.7L1428.9,33.7L1448.0,43.2ZM-19.1,107.1L-38.1,115.4L-57.2,102.0L-57.2,80.0L-38.1,71.4L-19.1,85.1ZM19.1,112.9L0.0,121.0L-19.1,107.1L-19.1,85.1L-0.0,77.0L19.1,90.9ZM57.2,118.0L38.1,126.6L19.1,112.9L19.1,90.9L38.1,82.6L57.2,96.0ZM95.3,121.6L76.2,131.1L57.2,118.0L57.2,96.0L76.2,87.1L95.3,99.6ZM133.4,123.0L114.3,133.6L95.3,121.6L95.3,99.6L114.3,89.6L133.4,101.0ZM171.5,121.8L152.4,133.7L133.4,123.0L133.4,101.0L152.4,89.7L171.5,99.8ZM209.6,118.4L190.5,131.4L171.5,121.8L171.5,99.8L190.5,87.4L209.6,96.4ZM247.7,113.3L228.6,127.0L209.6,118.4L209.6,96.4L228.6,83.0L247.7,91.3ZM285.8,107.6L266.7,121.5L247.7,113.3L247.7,91.3L266.7,77.5L285.8,85.6ZM323.9,102.4L304.8,115.9L285.8,107.6L285.8,85.6L304.8,71.9L323.9,80.4ZM362.0,98.6L342.9,111.2L323.9,102.4L323.9,80.4L342.9,67.2L362.0,76.6ZM400.1,97.0L381.1,108.5L362.0,98.6L362.0,76.6L381.1,64.5L400.1,75.0ZM438.2,98.0L419.2,108.2L400.1,97.0L400.1,75.0L419.2,64.2L438.2,76.0ZM476.3,101.2L457.3,110.3L438.2,98.0L438.2,76.0L457.3,66.3L476.3,79.2ZM514.4,106.2L495.4,114.5L476.3,101.2L476.3,79.2L495.4,70.5L514.4,84.2ZM552.5,111.9L533.5,120.0L514.4,106.2L514.4,84.2L533.5,76.0L552.5,89.9ZM590.6,117.2L571.6,125.7L552.5,111.9L552.5,89.9L571.6,81.7L590.6,95.2ZM628.7,121.2L609.7,130.4L590.6,117.2L590.6,95.2L609.7,86.4L628.7,99.2ZM666.8,122.9L647.8,133.4L628.7,121.2L628.7,99.2L647.8,89.4L666.8,100.9ZM704.9,122.2L685.9,133.9L666.8,122.9L666.8,100.9L685.9,89.9L704.9,100.2ZM743.0,119.1L724.0,131.9L704.9,122.2L704.9,100.2L724.0,87.9L743.0,97.1ZM781.2,114.3L762.1,127.9L743.0,119.1L743.0,97.1L762.1,83.9L781.2,92.3ZM819.3,108.6L800.2,122.5L781.2,114.3L781.2,92.3L800.2,78.5L819.3,86.6ZM857.4,103.2L838.3,116.8L819.3,108.6L819.3,86.6L838.3,72.8L857.4,81.2ZM895.5,99.1L876.4,111.9L857.4,103.2L857.4,81.2L876.4,67.9L895.5,77.1ZM933.6,97.1L914.5,108.8L895.5,99.1L895.5,77.1L914.5,64.8L933.6,75.1ZM971.7,97.6L952.6,108.1L933.6,97.1L933.6,75.1L952.6,64.1L971.7,75.6ZM1009.8,100.5L990.7,109.8L971.7,97.6L971.7,75.6L990.7,65.8L1009.8,78.5ZM1047.9,105.3L1028.8,113.7L1009.8,100.5L1009.8,78.5L1028.8,69.7L1047.9,83.3ZM1086.0,110.9L1066.9,119.0L1047.9,105.3L1047.9,83.3L1066.9,75.0L1086.0,88.9ZM1124.1,116.4L1105.0,124.7L1086.0,110.9L1086.0,88.9L1105.0,80.7L1124.1,94.4ZM1162.2,120.6L1143.2,129.7L1124.1,116.4L1124.1,94.4L1143.2,85.7L1162.2,98.6ZM1200.3,122.8L1181.3,133.0L1162.2,120.6L1162.2,98.6L1181.3,89.0L1200.3,100.8ZM1238.4,122.5L1219.4,134.0L1200.3,122.8L1200.3,100.8L1219.4,90.0L1238.4,100.5ZM1276.5,119.8L1257.5,132.4L1238.4,122.5L1238.4,100.5L1257.5,88.4L1276.5,97.8ZM1314.6,115.2L1295.6,128.7L1276.5,119.8L1276.5,97.8L1295.6,84.7L1314.6,93.2ZM1352.7,109.6L1333.7,123.5L1314.6,115.2L1314.6,93.2L1333.7,79.5L1352.7,87.6ZM1390.8,104.1L1371.8,117.7L1352.7,109.6L1352.7,87.6L1371.8,73.7L1390.8,82.1ZM1428.9,99.7L1409.9,112.7L1390.8,104.1L1390.8,82.1L1409.9,68.7L1428.9,77.7ZM0.0,143.0L-19.1,151.1L-38.1,137.4L-38.1,115.4L-19.1,107.1L-0.0,121.0ZM38.1,148.6L19.1,156.9L-0.0,143.0L0.0,121.0L19.1,112.9L38.1,126.6ZM76.2,153.1L57.2,162.0L38.1,148.6L38.1,126.6L57.2,118.0L76.2,131.1ZM114.3,155.6L95.3,165.6L76.2,153.1L76.2,131.1L95.3,121.6L114.3,133.6ZM152.4,155.7L133.4,167.0L114.3,155.6L114.3,133.6L133.4,123.0L152.4,133.7ZM190.5,153.4L171.5,165.8L152.4,155.7L152.4,133.7L171.5,121.8L190.5,131.4ZM228.6,149.0L209.6,162.4L190.5,153.4L190.5,131.4L209.6,118.4L228.6,127.0ZM266.7,143.5L247.7,157.3L228.6,149.0L228.6,127.0L247.7,113.3L266.7,121.5ZM304.8,137.9L285.8,151.6L266.7,143.5L266.7,121.5L285.8,107.6L304.8,115.9ZM342.9,133.2L323.9,146.4L304.8,137.9L304.8,115.9L323.9,102.4L342.9,111.2ZM381.1,130.5L362.0,142.6L342.9,133.2L342.9,111.2L362.0,98.6L381.1,108.5ZM419.2,130.2L400.1,141.0L381.1,130.5L381.1,108.5L400.1,97.0L419.2,108.2ZM457.3,132.3L438.2,142.0L419.2,130.2L419.2,108.2L438.2,98.0L457.3,110.3ZM495.4,136.5L476.3,145.2L457.3,132.3L457.3,110.3L476.3,101.2L495.4,114.5ZM533.5,142.0L514.4,150.2L495.4,136.5L495.4,114.5L514.4,106.2L533.5,120.0ZM571.6,147.7L552.5,155.9L533.5,142.0L533.5,120.0L552.5,111.9L571.6,125.7ZM609.7,152.4L590.6,161.2L571.6,147.7L571.6,125.7L590.6,117.2L609.7,130.4ZM647.8,155.4L628.7,165.2L609.7,152.4L609.7,130.4L628.7,121.2L647.8,133.4ZM685.9,155.9L666.8,166.9L647.8,155.4L647.8,133.4L666.8,122.9L685.9,133.9ZM724.0,153.9L704.9,166.2L685.9,155.9L685.9,133.9L704.9,122.2L724.0,131.9ZM762.1,149.9L743.0,163.1L724.0,153.9L724.0,131.9L743.0,119.1L762.1,127.9ZM800.2,144.5L781.2,158.3L762.1,149.9L762.1,127.9L781.2,114.3L800.2,122.5ZM838.3,138.8L819.3,152.6L800.2,144.5L800.2,122.5L819.3,108.6L838.3,116.8ZM876.4,133.9L857.4,147.2L838.3,138.8L838.3,116.8L857.4,103.2L876.4,111.9ZM914.5,130.8L895.5,143.1L876.4,133.9L876.4,111.9L895.5,99.1L914.5,108.8ZM952.6,130.1L933.6,141.1L914.5,130.8L914.5,108.8L933.6,97.1L952.6,108.1ZM990.7,131.8L971.7,141.6L952.6,130.1L952.6,108.1L971.7,97.6L990.7,109.8ZM1028.8,135.7L1009.8,144.5L990.7,131.8L990.7,109.8L1009.8,100.5L1028.8,113.7ZM1066.9,141.0L1047.9,149.3L1028.8,135.7L1028.8,113.7L1047.9,105.3L1066.9,119.0ZM1105.0,146.7L1086.0,154.9L1066.9,141.0L1066.9,119.0L1086.0,110.9L1105.0,124.7ZM1143.2,151.7L1124.1,160.4L1105.0,146.7L1105.0,124.7L1124.1,116.4L1143.2,129.7ZM1181.3,155.0L1162.2,164.6L1143.2,151.7L1143.2,129.7L1162.2,120.6L1181.3,133.0ZM1219.4,156.0L1200.3,166.8L1181.3,155.0L1181.3,133.0L1200.3,122.8L1219.4,134.0ZM1257.5,154.4L1238.4,166.5L1219.4,156.0L1219.4,134.0L1238.4,122.5L1257.5,132.4ZM1295.6,150.7L1276.5,163.8L1257.5,154.4L1257.5,132.4L1276.5,119.8L1295.6,128.7ZM1333.7,145.5L1314.6,159.2L1295.6,150.7L1295.6,128.7L1314.6,115.2L1333.7,123.5ZM1371.8,139.7L1352.7,153.6L1333.7,145.5L1333.7,123.5L1352.7,109.6L1371.8,117.7ZM1409.9,134.7L1390.8,148.1L1371.8,139.7L1371.8,117.7L1390.8,104.1L1409.9,112.7ZM1448.0,131.2L1428.9,143.7L1409.9,134.7L1409.9,112.7L1428.9,99.7L1448.0,109.2ZM-19.1,173.1L-38.1,181.4L-57.2,168.0L-57.2,146.0L-38.1,137.4L-19.1,151.1ZM19.1,178.9L0.0,187.0L-19.1,173.1L-19.1,151.1L-0.0,143.0L19.1,156.9ZM57.2,184.0L38.1,192.6L19.1,178.9L19.1,156.9L38.1,148.6L57.2,162.0ZM95.3,187.6L76.2,197.1L57.2,184.0L57.2,162.0L76.2,153.1L95.3,165.6ZM133.4,189.0L114.3,199.6L95.3,187.6L95.3,165.6L114.3,155.6L133.4,167.0ZM171.5,187.8L152.4,199.7L133.4,189.0L133.4,167.0L152.4,155.7L171.5,165.8ZM209.6,184.4L190.5,197.4L171.5,187.8L171.5,165.8L190.5,153.4L209.6,162.4ZM247.7,179.3L228.6,193.0L209.6,184.4L209.6,162.4L228.6,149.0L247.7,157.3ZM285.8,173.6L266.7,187.5L247.7,179.3L247.7,157.3L266.7,143.5L285.8,151.6ZM323.9,168.4L304.8,181.9L285.8,173.6L285.8,151.6L304.8,137.9L323.9,146.4ZM362.0,164.6L342.9,177.2L323.9,168.4L323.9,146.4L342.9,133.2L362.0,142.6ZM400.1,163.0L381.1,174.5L362.0,164.6L362.0,142.6L381.1,130.5L400.1,141.0ZM438.2,164.0L419.2,174.2L400.1,163.0L400.1,141.0L419.2,130.2L438.2,142.0ZM476.3,167.2L457.3,176.3L438.2,164.0L438.2,142.0L457.3,132.3L476.3,145.2ZM514.4,172.2L495.4,180.5L476.3,167.2L476.3,145.2L495.4,136.5L514.4,150.2ZM552.5,177.9L533.5,186.0L514.4,172.2L514.4,150.2L533.5,142.0L552.5,155.9ZM590.6,183.2L571.6,191.7L552.5,177.9L552.5,155.9L571.6,147.7L590.6,161.2ZM628.7,187.2L609.7,196.4L590.6,183.2L590.6,161.2L609.7,152.4L628.7,165.2ZM666.8,188.9L647.8,199.4L628.7,187.2L628.7,165.2L647.8,155.4L666.8,166.9ZM704.9,188.2L685.9,199.9L666.8,188.9L666.8,166.9L685.9,155.9L704.9,166.2ZM743.0,185.1L724.0,197.9L704.9,188.2L704.9,166.2L724.0,153.9L743.0,163.1ZM781.2,180.3L762.1,193.9L743.0,185.1L743.0,163.1L762.1,149.9L781.2,158.3ZM819.3,174.6L800.2,188.5L781.2,180.3L781.2,158.3L800.2,144.5L819.3,152.6ZM857.4,169.2L838.3,182.8L819.3,174.6L819.3,152.6L838.3,138.8L857.4,147.2ZM895.5,165.1L876.4,177.9L857.4,169.2L857.4,147.2L876.4,133.9L895.5,143.1ZM933.6,163.1L914.5,174.8L895.5,165.1L895.5,143.1L914.5,130.8L933.6,141.1ZM971.7,163.6L952.6,174.1L933.6,163.1L933.6,141.1L952.6,130.1L971.7,141.6ZM1009.8,166.5L990.7,175.8L971.7,163.6L971.7,141.6L990.7,131.8L1009.8,144.5ZM1047.9,171.3L1028.8,179.7L1009.8,166.5L1009.8,144.5L1028.8,135.7L1047.9,149.3ZM1086.0,176.9L1066.9,185.0L1047.9,171.3L1047.9,149.3L1066.9,141.0L1086.0,154.9ZM1124.1,182.4L1105.0,190.7L1086.0,176.9L1086.0,154.9L1105.0,146.7L1124.1,160.4ZM1162.2,186.6L1143.2,195.7L1124.1,182.4L1124.1,160.4L1143.2,151.7L1162.2,164.6ZM1200.3,188.8L1181.3,199.0L1162.2,186.6L1162.2,164.6L1181.3,155.0L1200.3,166.8ZM1238.4,188.5L1219.4,200.0L1200.3,188.8L1200.3,166.8L1219.4,156.0L1238.4,166.5ZM1276.5,185.8L1257.5,198.4L1238.4,188.5L1238.4,166.5L1257.5,154.4L1276.5,163.8ZM1314.6,181.2L1295.6,194.7L1276.5,185.8L1276.5,163.8L1295.6,150.7L1314.6,159.2ZM1352.7,175.6L1333.7,189.5L1314.6,181.2L1314.6,159.2L1333.7,145.5L1352.7,153.6ZM1390.8,170.1L1371.8,183.7L1352.7,175.6L1352.7,153.6L1371.8,139.7L1390.8,148.1ZM1428.9,165.7L1409.9,178.7L1390.8,170.1L1390.8,148.1L1409.9,134.7L1428.9,143.7ZM0.0,209.0L-19.1,217.1L-38.1,203.4L-38.1,181.4L-19.1,173.1L-0.0,187.0ZM38.1,214.6L19.1,222.9L-0.0,209.0L0.0,187.0L19.1,178.9L38.1,192.6ZM76.2,219.1L57.2,228.0L38.1,214.6L38.1,192.6L57.2,184.0L76.2,197.1ZM114.3,221.6L95.3,231.6L76.2,219.1L76.2,197.1L95.3,187.6L114.3,199.6ZM152.4,221.7L133.4,233.0L114.3,221.6L114.3,199.6L133.4,189.0L152.4,199.7ZM190.5,219.4L171.5,231.8L152.4,221.7L152.4,199.7L171.5,187.8L190.5,197.4ZM228.6,215.0L209.6,228.4L190.5,219.4L190.5,197.4L209.6,184.4L228.6,193.0ZM266.7,209.5L247.7,223.3L228.6,215.0L228.6,193.0L247.7,179.3L266.7,187.5ZM304.8,203.9L285.8,217.6L266.7,209.5L266.7,187.5L285.8,173.6L304.8,181.9ZM342.9,199.2L323.9,212.4L304.8,203.9L304.8,181.9L323.9,168.4L342.9,177.2ZM381.1,196.5L362.0,208.6L342.9,199.2L342.9,177.2L362.0,164.6L381.1,174.5ZM419.2,196.2L400.1,207.0L381.1,196.5L381.1,174.5L400.1,163.0L419.2,174.2ZM457.3,198.3L438.2,208.0L419.2,196.2L419.2,174.2L438.2,164.0L457.3,176.3ZM495.4,202.5L476.3,211.2L457.3,198.3L457.3,176.3L476.3,167.2L495.4,180.5ZM533.5,208.0L514.4,216.2L495.4,202.5L495.4,180.5L514.4,172.2L533.5,186.0ZM571.6,213.7L552.5,221.9L533.5,208.0L533.5,186.0L552.5,177.9L571.6,191.7ZM609.7,218.4L590.6,227.2L571.6,213.7L571.6,191.7L590.6,183.2L609.7,196.4ZM647.8,221.4L628.7,231.2L609.7,218.4L609.7,196.4L628.7,187.2L647.8,199.4ZM685.9,221.9L666.8,232.9L647.8,221.4L647.8,199.4L666.8,188.9L685.9,199.9ZM724.0,219.9L704.9,232.2L685.9,221.9L685.9,199.9L704.9,188.2L724.0,197.9ZM762.1,215.9L743.0,229.1L724.0,219.9L724.0,197.9L743.0,185.1L762.1,193.9ZM800.2,210.5L781.2,224.3L762.1,215.9L762.1,193.9L781.2,180.3L800.2,188.5ZM838.3,204.8L819.3,218.6L800.2,210.5L800.2,188.5L819.3,174.6L838.3,182.8ZM876.4,199.9L857.4,213.2L838.3,204.8L838.3,182.8L857.4,169.2L876.4,177.9ZM914.5,196.8L895.5,209.1L876.4,199.9L876.4,177.9L895.5,165.1L914.5,174.8ZM952.6,196.1L933.6,207.1L914.5,196.8L914.5,174.8L933.6,163.1L952.6,174.1ZM990.7,197.8L971.7,207.6L952.6,196.1L952.6,174.1L971.7,163.6L990.7,175.8ZM1028.8,201.7L1009.8,210.5L990.7,197.8L990.7,175.8L1009.8,166.5L1028.8,179.7ZM1066.9,207.0L1047.9,215.3L1028.8,201.7L1028.8,179.7L1047.9,171.3L1066.9,185.0ZM1105.0,212.7L1086.0,220.9L1066.9,207.0L1066.9,185.0L1086.0,176.9L1105.0,190.7ZM1143.2,217.7L1124.1,226.4L1105.0,212.7L1105.0,190.7L1124.1,182.4L1143.2,195.7ZM1181.3,221.0L1162.2,230.6L1143.2,217.7L1143.2,195.7L1162.2,186.6L1181.3,199.0ZM1219.4,222.0L1200.3,232.8L1181.3,221.0L1181.3,199.0L1200.3,188.8L1219.4,200.0ZM1257.5,220.4L1238.4,232.5L1219.4,222.0L1219.4,200.0L1238.4,188.5L1257.5,198.4ZM1295.6,216.7L1276.5,229.8L1257.5,220.4L1257.5,198.4L1276.5,185.8L1295.6,194.7ZM1333.7,211.5L1314.6,225.2L1295.6,216.7L1295.6,194.7L1314.6,181.2L1333.7,189.5ZM1371.8,205.7L1352.7,219.6L1333.7,211.5L1333.7,189.5L1352.7,175.6L1371.8,183.7ZM1409.9,200.7L1390.8,214.1L1371.8,205.7L1371.8,183.7L1390.8,170.1L1409.9,178.7ZM1448.0,197.2L1428.9,209.7L1409.9,200.7L1409.9,178.7L1428.9,165.7L1448.0,175.2ZM-19.1,239.1L-38.1,247.4L-57.2,234.0L-57.2,212.0L-38.1,203.4L-19.1,217.1ZM19.1,244.9L0.0,253.0L-19.1,239.1L-19.1,217.1L-0.0,209.0L19.1,222.9ZM57.2,250.0L38.1,258.6L19.1,244.9L19.1,222.9L38.1,214.6L57.2,228.0ZM95.3,253.6L76.2,263.1L57.2,250.0L57.2,228.0L76.2,219.1L95.3,231.6ZM133.4,255.0L114.3,265.6L95.3,253.6L95.3,231.6L114.3,221.6L133.4,233.0ZM171.5,253.8L152.4,265.7L133.4,255.0L133.4,233.0L152.4,221.7L171.5,231.8ZM209.6,250.4L190.5,263.4L171.5,253.8L171.5,231.8L190.5,219.4L209.6,228.4ZM247.7,245.3L228.6,259.0L209.6,250.4L209.6,228.4L228.6,215.0L247.7,223.3ZM285.8,239.6L266.7,253.5L247.7,245.3L247.7,223.3L266.7,209.5L285.8,217.6ZM323.9,234.4L304.8,247.9L285.8,239.6L285.8,217.6L304.8,203.9L323.9,212.4ZM362.0,230.6L342.9,243.2L323.9,234.4L323.9,212.4L342.9,199.2L362.0,208.6ZM400.1,229.0L381.1,240.5L362.0,230.6L362.0,208.6L381.1,196.5L400.1,207.0ZM438.2,230.0L419.2,240.2L400.1,229.0L400.1,207.0L419.2,196.2L438.2,208.0ZM476.3,233.2L457.3,242.3L438.2,230.0L438.2,208.0L457.3,198.3L476.3,211.2ZM514.4,238.2L495.4,246.5L476.3,233.2L476.3,211.2L495.4,202.5L514.4,216.2ZM552.5,243.9L533.5,252.0L514.4,238.2L514.4,216.2L533.5,208.0L552.5,221.9ZM590.6,249.2L571.6,257.7L552.5,243.9L552.5,221.9L571.6,213.7L590.6,227.2ZM628.7,253.2L609.7,262.4L590.6,249.2L590.6,227.2L609.7,218.4L628.7,231.2ZM666.8,254.9L647.8,265.4L628.7,253.2L628.7,231.2L647.8,221.4L666.8,232.9ZM704.9,254.2L685.9,265.9L666.8,254.9L666.8,232.9L685.9,221.9L704.9,232.2ZM743.0,251.1L724.0,263.9L704.9,254.2L704.9,232.2L724.0,219.9L743.0,229.1ZM781.2,246.3L762.1,259.9L743.0,251.1L743.0,229.1L762.1,215.9L781.2,224.3ZM819.3,240.6L800.2,254.5L781.2,246.3L781.2,224.3L800.2,210.5L819.3,218.6ZM857.4,235.2L838.3,248.8L819.3,240.6L819.3,218.6L838.3,204.8L857.4,213.2ZM895.5,231.1L876.4,243.9L857.4,235.2L857.4,213.2L876.4,199.9L895.5,209.1ZM933.6,229.1L914.5,240.8L895.5,231.1L895.5,209.1L914.5,196.8L933.6,207.1ZM971.7,229.6L952.6,240.1L933.6,229.1L933.6,207.1L952.6,196.1L971.7,207.6ZM1009.8,232.5L990.7,241.8L971.7,229.6L971.7,207.6L990.7,197.8L1009.8,210.5ZM1047.9,237.3L1028.8,245.7L1009.8,232.5L1009.8,210.5L1028.8,201.7L1047.9,215.3ZM1086.0,242.9L1066.9,251.0L1047.9,237.3L1047.9,215.3L1066.9,207.0L1086.0,220.9ZM1124.1,248.4L1105.0,256.7L1086.0,242.9L1086.0,220.9L1105.0,212.7L1124.1,226.4ZM1162.2,252.6L1143.2,261.7L1124.1,248.4L1124.1,226.4L1143.2,217.7L1162.2,230.6ZM1200.3,254.8L1181.3,265.0L1162.2,252.6L1162.2,230.6L1181.3,221.0L1200.3,232.8ZM1238.4,254.5L1219.4,266.0L1200.3,254.8L1200.3,232.8L1219.4,222.0L1238.4,232.5ZM1276.5,251.8L1257.5,264.4L1238.4,254.5L1238.4,232.5L1257.5,220.4L1276.5,229.8ZM1314.6,247.2L1295.6,260.7L1276.5,251.8L1276.5,229.8L1295.6,216.7L1314.6,225.2ZM1352.7,241.6L1333.7,255.5L1314.6,247.2L1314.6,225.2L1333.7,211.5L1352.7,219.6ZM1390.8,236.1L1371.8,249.7L1352.7,241.6L1352.7,219.6L1371.8,205.7L1390.8,214.1ZM1428.9,231.7L1409.9,244.7L1390.8,236.1L1390.8,214.1L1409.9,200.7L1428.9,209.7ZM0.0,275.0L-19.1,283.1L-38.1,269.4L-38.1,247.4L-19.1,239.1L-0.0,253.0ZM38.1,280.6L19.1,288.9L-0.0,275.0L0.0,253.0L19.1,244.9L38.1,258.6ZM76.2,285.1L57.2,294.0L38.1,280.6L38.1,258.6L57.2,250.0L76.2,263.1ZM114.3,287.6L95.3,297.6L76.2,285.1L76.2,263.1L95.3,253.6L114.3,265.6ZM152.4,287.7L133.4,299.0L114.3,287.6L114.3,265.6L133.4,255.0L152.4,265.7ZM190.5,285.4L171.5,297.8L152.4,287.7L152.4,265.7L171.5,253.8L190.5,263.4ZM228.6,281.0L209.6,294.4L190.5,285.4L190.5,263.4L209.6,250.4L228.6,259.0ZM266.7,275.5L247.7,289.3L228.6,281.0L228.6,259.0L247.7,245.3L266.7,253.5ZM304.8,269.9L285.8,283.6L266.7,275.5L266.7,253.5L285.8,239.6L304.8,247.9ZM342.9,265.2L323.9,278.4L304.8,269.9L304.8,247.9L323.9,234.4L342.9,243.2ZM381.1,262.5L362.0,274.6L342.9,265.2L342.9,243.2L362.0,230.6L381.1,240.5ZM419.2,262.2L400.1,273.0L381.1,262.5L381.1,240.5L400.1,229.0L419.2,240.2ZM457.3,264.3L438.2,274.0L419.2,262.2L419.2,240.2L438.2,230.0L457.3,242.3ZM495.4,268.5L476.3,277.2L457.3,264.3L457.3,242.3L476.3,233.2L495.4,246.5ZM533.5,274.0L514.4,282.2L495.4,268.5L495.4,246.5L514.4,238.2L533.5,252.0ZM571.6,279.7L552.5,287.9L533.5,274.0L533.5,252.0L552.5,243.9L571.6,257.7ZM609.7,284.4L590.6,293.2L571.6,279.7L571.6,257.7L590.6,249.2L609.7,262.4ZM647.8,287.4L628.7,297.2L609.7,284.4L609.7,262.4L628.7,253.2L647.8,265.4ZM685.9,287.9L666.8,298.9L647.8,287.4L647.8,265.4L666.8,254.9L685.9,265.9ZM724.0,285.9L704.9,298.2L685.9,287.9L685.9,265.9L704.9,254.2L724.0,263.9ZM762.1,281.9L743.0,295.1L724.0,285.9L724.0,263.9L743.0,251.1L762.1,259.9ZM800.2,276.5L781.2,290.3L762.1,281.9L762.1,259.9L781.2,246.3L800.2,254.5ZM838.3,270.8L819.3,284.6L800.2,276.5L800.2,254.5L819.3,240.6L838.3,248.8ZM876.4,265.9L857.4,279.2L838.3,270.8L838.3,248.8L857.4,235.2L876.4,243.9ZM914.5,262.8L895.5,275.1L876.4,265.9L876.4,243.9L895.5,231.1L914.5,240.8ZM952.6,262.1L933.6,273.1L914.5,262.8L914.5,240.8L933.6,229.1L952.6,240.1ZM990.7,263.8L971.7,273.6L952.6,262.1L952.6,240.1L971.7,229.6L990.7,241.8ZM1028.8,267.7L1009.8,276.5L990.7,263.8L990.7,241.8L1009.8,232.5L1028.8,245.7ZM1066.9,273.0L1047.9,281.3L1028.8,267.7L1028.8,245.7L1047.9,237.3L1066.9,251.0ZM1105.0,278.7L1086.0,286.9L1066.9,273.0L1066.9,251.0L1086.0,242.9L1105.0,256.7ZM1143.2,283.7L1124.1,292.4L1105.0,278.7L1105.0,256.7L1124.1,248.4L1143.2,261.7ZM1181.3,287.0L1162.2,296.6L1143.2,283.7L1143.2,261.7L1162.2,252.6L1181.3,265.0ZM1219.4,288.0L1200.3,298.8L1181.3,287.0L1181.3,265.0L1200.3,254.8L1219.4,266.0ZM1257.5,286.4L1238.4,298.5L1219.4,288.0L1219.4,266.0L1238.4,254.5L1257.5,264.4ZM1295.6,282.7L1276.5,295.8L1257.5,286.4L1257.5,264.4L1276.5,251.8L1295.6,260.7ZM1333.7,277.5L1314.6,291.2L1295.6,282.7L1295.6,260.7L1314.6,247.2L1333.7,255.5ZM1371.8,271.7L1352.7,285.6L1333.7,277.5L1333.7,255.5L1352.7,241.6L1371.8,249.7ZM1409.9,266.7L1390.8,280.1L1371.8,271.7L1371.8,249.7L1390.8,236.1L1409.9,244.7ZM1448.0,263.2L1428.9,275.7L1409.9,266.7L1409.9,244.7L1428.9,231.7L1448.0,241.2ZM-19.1,305.1L-38.1,313.4L-57.2,300.0L-57.2,278.0L-38.1,269.4L-19.1,283.1ZM19.1,310.9L0.0,319.0L-19.1,305.1L-19.1,283.1L-0.0,275.0L19.1,288.9ZM57.2,316.0L38.1,324.6L19.1,310.9L19.1,288.9L38.1,280.6L57.2,294.0ZM95.3,319.6L76.2,329.1L57.2,316.0L57.2,294.0L76.2,285.1L95.3,297.6ZM133.4,321.0L114.3,331.6L95.3,319.6L95.3,297.6L114.3,287.6L133.4,299.0ZM171.5,319.8L152.4,331.7L133.4,321.0L133.4,299.0L152.4,287.7L171.5,297.8ZM209.6,316.4L190.5,329.4L171.5,319.8L171.5,297.8L190.5,285.4L209.6,294.4ZM247.7,311.3L228.6,325.0L209.6,316.4L209.6,294.4L228.6,281.0L247.7,289.3ZM285.8,305.6L266.7,319.5L247.7,311.3L247.7,289.3L266.7,275.5L285.8,283.6ZM323.9,300.4L304.8,313.9L285.8,305.6L285.8,283.6L304.8,269.9L323.9,278.4ZM362.0,296.6L342.9,309.2L323.9,300.4L323.9,278.4L342.9,265.2L362.0,274.6ZM400.1,295.0L381.1,306.5L362.0,296.6L362.0,274.6L381.1,262.5L400.1,273.0ZM438.2,296.0L419.2,306.2L400.1,295.0L400.1,273.0L419.2,262.2L438.2,274.0ZM476.3,299.2L457.3,308.3L438.2,296.0L438.2,274.0L457.3,264.3L476.3,277.2ZM514.4,304.2L495.4,312.5L476.3,299.2L476.3,277.2L495.4,268.5L514.4,282.2ZM552.5,309.9L533.5,318.0L514.4,304.2L514.4,282.2L533.5,274.0L552.5,287.9ZM590.6,315.2L571.6,323.7L552.5,309.9L552.5,287.9L571.6,279.7L590.6,293.2ZM628.7,319.2L609.7,328.4L590.6,315.2L590.6,293.2L609.7,284.4L628.7,297.2ZM666.8,320.9L647.8,331.4L628.7,319.2L628.7,297.2L647.8,287.4L666.8,298.9ZM704.9,320.2L685.9,331.9L666.8,320.9L666.8,298.9L685.9,287.9L704.9,298.2ZM743.0,317.1L724.0,329.9L704.9,320.2L704.9,298.2L724.0,285.9L743.0,295.1ZM781.2,312.3L762.1,325.9L743.0,317.1L743.0,295.1L762.1,281.9L781.2,290.3ZM819.3,306.6L800.2,320.5L781.2,312.3L781.2,290.3L800.2,276.5L819.3,284.6ZM857.4,301.2L838.3,314.8L819.3,306.6L819.3,284.6L838.3,270.8L857.4,279.2ZM895.5,297.1L876.4,309.9L857.4,301.2L857.4,279.2L876.4,265.9L895.5,275.1ZM933.6,295.1L914.5,306.8L895.5,297.1L895.5,275.1L914.5,262.8L933.6,273.1ZM971.7,295.6L952.6,306.1L933.6,295.1L933.6,273.1L952.6,262.1L971.7,273.6ZM1009.8,298.5L990.7,307.8L971.7,295.6L971.7,273.6L990.7,263.8L1009.8,276.5ZM1047.9,303.3L1028.8,311.7L1009.8,298.5L1009.8,276.5L1028.8,267.7L1047.9,281.3ZM1086.0,308.9L1066.9,317.0L1047.9,303.3L1047.9,281.3L1066.9,273.0L1086.0,286.9ZM1124.1,314.4L1105.0,322.7L1086.0,308.9L1086.0,286.9L1105.0,278.7L1124.1,292.4ZM1162.2,318.6L1143.2,327.7L1124.1,314.4L1124.1,292.4L1143.2,283.7L1162.2,296.6ZM1200.3,320.8L1181.3,331.0L1162.2,318.6L1162.2,296.6L1181.3,287.0L1200.3,298.8ZM1238.4,320.5L1219.4,332.0L1200.3,320.8L1200.3,298.8L1219.4,288.0L1238.4,298.5ZM1276.5,317.8L1257.5,330.4L1238.4,320.5L1238.4,298.5L1257.5,286.4L1276.5,295.8ZM1314.6,313.2L1295.6,326.7L1276.5,317.8L1276.5,295.8L1295.6,282.7L1314.6,291.2ZM1352.7,307.6L1333.7,321.5L1314.6,313.2L1314.6,291.2L1333.7,277.5L1352.7,285.6ZM1390.8,302.1L1371.8,315.7L1352.7,307.6L1352.7,285.6L1371.8,271.7L1390.8,280.1ZM1428.9,297.7L1409.9,310.7L1390.8,302.1L1390.8,280.1L1409.9,266.7L1428.9,275.7ZM0.0,341.0L-19.1,349.1L-38.1,335.4L-38.1,313.4L-19.1,305.1L-0.0,319.0ZM38.1,346.6L19.1,354.9L-0.0,341.0L0.0,319.0L19.1,310.9L38.1,324.6ZM76.2,351.1L57.2,360.0L38.1,346.6L38.1,324.6L57.2,316.0L76.2,329.1ZM114.3,353.6L95.3,363.6L76.2,351.1L76.2,329.1L95.3,319.6L114.3,331.6ZM152.4,353.7L133.4,365.0L114.3,353.6L114.3,331.6L133.4,321.0L152.4,331.7ZM190.5,351.4L171.5,363.8L152.4,353.7L152.4,331.7L171.5,319.8L190.5,329.4ZM228.6,347.0L209.6,360.4L190.5,351.4L190.5,329.4L209.6,316.4L228.6,325.0ZM266.7,341.5L247.7,355.3L228.6,347.0L228.6,325.0L247.7,311.3L266.7,319.5ZM304.8,335.9L285.8,349.6L266.7,341.5L266.7,319.5L285.8,305.6L304.8,313.9ZM342.9,331.2L323.9,344.4L304.8,335.9L304.8,313.9L323.9,300.4L342.9,309.2ZM381.1,328.5L362.0,340.6L342.9,331.2L342.9,309.2L362.0,296.6L381.1,306.5ZM419.2,328.2L400.1,339.0L381.1,328.5L381.1,306.5L400.1,295.0L419.2,306.2ZM457.3,330.3L438.2,340.0L419.2,328.2L419.2,306.2L438.2,296.0L457.3,308.3ZM495.4,334.5L476.3,343.2L457.3,330.3L457.3,308.3L476.3,299.2L495.4,312.5ZM533.5,340.0L514.4,348.2L495.4,334.5L495.4,312.5L514.4,304.2L533.5,318.0ZM571.6,345.7L552.5,353.9L533.5,340.0L533.5,318.0L552.5,309.9L571.6,323.7ZM609.7,350.4L590.6,359.2L571.6,345.7L571.6,323.7L590.6,315.2L609.7,328.4ZM647.8,353.4L628.7,363.2L609.7,350.4L609.7,328.4L628.7,319.2L647.8,331.4ZM685.9,353.9L666.8,364.9L647.8,353.4L647.8,331.4L666.8,320.9L685.9,331.9ZM724.0,351.9L704.9,364.2L685.9,353.9L685.9,331.9L704.9,320.2L724.0,329.9ZM762.1,347.9L743.0,361.1L724.0,351.9L724.0,329.9L743.0,317.1L762.1,325.9ZM800.2,342.5L781.2,356.3L762.1,347.9L762.1,325.9L781.2,312.3L800.2,320.5ZM838.3,336.8L819.3,350.6L800.2,342.5L800.2,320.5L819.3,306.6L838.3,314.8ZM876.4,331.9L857.4,345.2L838.3,336.8L838.3,314.8L857.4,301.2L876.4,309.9ZM914.5,328.8L895.5,341.1L876.4,331.9L876.4,309.9L895.5,297.1L914.5,306.8ZM952.6,328.1L933.6,339.1L914.5,328.8L914.5,306.8L933.6,295.1L952.6,306.1ZM990.7,329.8L971.7,339.6L952.6,328.1L952.6,306.1L971.7,295.6L990.7,307.8ZM1028.8,333.7L1009.8,342.5L990.7,329.8L990.7,307.8L1009.8,298.5L1028.8,311.7ZM1066.9,339.0L1047.9,347.3L1028.8,333.7L1028.8,311.7L1047.9,303.3L1066.9,317.0ZM1105.0,344.7L1086.0,352.9L1066.9,339.0L1066.9,317.0L1086.0,308.9L1105.0,322.7ZM1143.2,349.7L1124.1,358.4L1105.0,344.7L1105.0,322.7L1124.1,314.4L1143.2,327.7ZM1181.3,353.0L1162.2,362.6L1143.2,349.7L1143.2,327.7L1162.2,318.6L1181.3,331.0ZM1219.4,354.0L1200.3,364.8L1181.3,353.0L1181.3,331.0L1200.3,320.8L1219.4,332.0ZM1257.5,352.4L1238.4,364.5L1219.4,354.0L1219.4,332.0L1238.4,320.5L1257.5,330.4ZM1295.6,348.7L1276.5,361.8L1257.5,352.4L1257.5,330.4L1276.5,317.8L1295.6,326.7ZM1333.7,343.5L1314.6,357.2L1295.6,348.7L1295.6,326.7L1314.6,313.2L1333.7,321.5ZM1371.8,337.7L1352.7,351.6L1333.7,343.5L1333.7,321.5L1352.7,307.6L1371.8,315.7ZM1409.9,332.7L1390.8,346.1L1371.8,337.7L1371.8,315.7L1390.8,302.1L1409.9,310.7ZM1448.0,329.2L1428.9,341.7L1409.9,332.7L1409.9,310.7L1428.9,297.7L1448.0,307.2ZM-19.1,371.1L-38.1,379.4L-57.2,366.0L-57.2,344.0L-38.1,335.4L-19.1,349.1ZM19.1,376.9L0.0,385.0L-19.1,371.1L-19.1,349.1L-0.0,341.0L19.1,354.9ZM57.2,382.0L38.1,390.6L19.1,376.9L19.1,354.9L38.1,346.6L57.2,360.0ZM95.3,385.6L76.2,395.1L57.2,382.0L57.2,360.0L76.2,351.1L95.3,363.6ZM133.4,387.0L114.3,397.6L95.3,385.6L95.3,363.6L114.3,353.6L133.4,365.0ZM171.5,385.8L152.4,397.7L133.4,387.0L133.4,365.0L152.4,353.7L171.5,363.8ZM209.6,382.4L190.5,395.4L171.5,385.8L171.5,363.8L190.5,351.4L209.6,360.4ZM247.7,377.3L228.6,391.0L209.6,382.4L209.6,360.4L228.6,347.0L247.7,355.3ZM285.8,371.6L266.7,385.5L247.7,377.3L247.7,355.3L266.7,341.5L285.8,349.6ZM323.9,366.4L304.8,379.9L285.8,371.6L285.8,349.6L304.8,335.9L323.9,344.4ZM362.0,362.6L342.9,375.2L323.9,366.4L323.9,344.4L342.9,331.2L362.0,340.6ZM400.1,361.0L381.1,372.5L362.0,362.6L362.0,340.6L381.1,328.5L400.1,339.0ZM438.2,362.0L419.2,372.2L400.1,361.0L400.1,339.0L419.2,328.2L438.2,340.0ZM476.3,365.2L457.3,374.3L438.2,362.0L438.2,340.0L457.3,330.3L476.3,343.2ZM514.4,370.2L495.4,378.5L476.3,365.2L476.3,343.2L495.4,334.5L514.4,348.2ZM552.5,375.9L533.5,384.0L514.4,370.2L514.4,348.2L533.5,340.0L552.5,353.9ZM590.6,381.2L571.6,389.7L552.5,375.9L552.5,353.9L571.6,345.7L590.6,359.2ZM628.7,385.2L609.7,394.4L590.6,381.2L590.6,359.2L609.7,350.4L628.7,363.2ZM666.8,386.9L647.8,397.4L628.7,385.2L628.7,363.2L647.8,353.4L666.8,364.9ZM704.9,386.2L685.9,397.9L666.8,386.9L666.8,364.9L685.9,353.9L704.9,364.2ZM743.0,383.1L724.0,395.9L704.9,386.2L704.9,364.2L724.0,351.9L743.0,361.1ZM781.2,378.3L762.1,391.9L743.0,383.1L743.0,361.1L762.1,347.9L781.2,356.3ZM819.3,372.6L800.2,386.5L781.2,378.3L781.2,356.3L800.2,342.5L819.3,350.6ZM857.4,367.2L838.3,380.8L819.3,372.6L819.3,350.6L838.3,336.8L857.4,345.2ZM895.5,363.1L876.4,375.9L857.4,367.2L857.4,345.2L876.4,331.9L895.5,341.1ZM933.6,361.1L914.5,372.8L895.5,363.1L895.5,341.1L914.5,328.8L933.6,339.1ZM971.7,361.6L952.6,372.1L933.6,361.1L933.6,339.1L952.6,328.1L971.7,339.6ZM1009.8,364.5L990.7,373.8L971.7,361.6L971.7,339.6L990.7,329.8L1009.8,342.5ZM1047.9,369.3L1028.8,377.7L1009.8,364.5L1009.8,342.5L1028.8,333.7L1047.9,347.3ZM1086.0,374.9L1066.9,383.0L1047.9,369.3L1047.9,347.3L1066.9,339.0L1086.0,352.9ZM1124.1,380.4L1105.0,388.7L1086.0,374.9L1086.0,352.9L1105.0,344.7L1124.1,358.4ZM1162.2,384.6L1143.2,393.7L1124.1,380.4L1124.1,358.4L1143.2,349.7L1162.2,362.6ZM1200.3,386.8L1181.3,397.0L1162.2,384.6L1162.2,362.6L1181.3,353.0L1200.3,364.8ZM1238.4,386.5L1219.4,398.0L1200.3,386.8L1200.3,364.8L1219.4,354.0L1238.4,364.5ZM1276.5,383.8L1257.5,396.4L1238.4,386.5L1238.4,364.5L1257.5,352.4L1276.5,361.8ZM1314.6,379.2L1295.6,392.7L1276.5,383.8L1276.5,361.8L1295.6,348.7L1314.6,357.2ZM1352.7,373.6L1333.7,387.5L1314.6,379.2L1314.6,357.2L1333.7,343.5L1352.7,351.6ZM1390.8,368.1L1371.8,381.7L1352.7,373.6L1352.7,351.6L1371.8,337.7L1390.8,346.1ZM1428.9,363.7L1409.9,376.7L1390.8,368.1L1390.8,346.1L1409.9,332.7L1428.9,341.7ZM0.0,407.0L-19.1,415.1L-38.1,401.4L-38.1,379.4L-19.1,371.1L-0.0,385.0ZM38.1,412.6L19.1,420.9L-0.0,407.0L0.0,385.0L19.1,376.9L38.1,390.6ZM76.2,417.1L57.2,426.0L38.1,412.6L38.1,390.6L57.2,382.0L76.2,395.1ZM114.3,419.6L95.3,429.6L76.2,417.1L76.2,395.1L95.3,385.6L114.3,397.6ZM152.4,419.7L133.4,431.0L114.3,419.6L114.3,397.6L133.4,387.0L152.4,397.7ZM190.5,417.4L171.5,429.8L152.4,419.7L152.4,397.7L171.5,385.8L190.5,395.4ZM228.6,413.0L209.6,426.4L190.5,417.4L190.5,395.4L209.6,382.4L228.6,391.0ZM266.7,407.5L247.7,421.3L228.6,413.0L228.6,391.0L247.7,377.3L266.7,385.5ZM304.8,401.9L285.8,415.6L266.7,407.5L266.7,385.5L285.8,371.6L304.8,379.9ZM342.9,397.2L323.9,410.4L304.8,401.9L304.8,379.9L323.9,366.4L342.9,375.2ZM381.1,394.5L362.0,406.6L342.9,397.2L342.9,375.2L362.0,362.6L381.1,372.5ZM419.2,394.2L400.1,405.0L381.1,394.5L381.1,372.5L400.1,361.0L419.2,372.2ZM457.3,396.3L438.2,406.0L419.2,394.2L419.2,372.2L438.2,362.0L457.3,374.3ZM495.4,400.5L476.3,409.2L457.3,396.3L457.3,374.3L476.3,365.2L495.4,378.5ZM533.5,406.0L514.4,414.2L495.4,400.5L495.4,378.5L514.4,370.2L533.5,384.0ZM571.6,411.7L552.5,419.9L533.5,406.0L533.5,384.0L552.5,375.9L571.6,389.7ZM609.7,416.4L590.6,425.2L571.6,411.7L571.6,389.7L590.6,381.2L609.7,394.4ZM647.8,419.4L628.7,429.2L609.7,416.4L609.7,394.4L628.7,385.2L647.8,397.4ZM685.9,419.9L666.8,430.9L647.8,419.4L647.8,397.4L666.8,386.9L685.9,397.9ZM724.0,417.9L704.9,430.2L685.9,419.9L685.9,397.9L704.9,386.2L724.0,395.9ZM762.1,413.9L743.0,427.1L724.0,417.9L724.0,395.9L743.0,383.1L762.1,391.9ZM800.2,408.5L781.2,422.3L762.1,413.9L762.1,391.9L781.2,378.3L800.2,386.5ZM838.3,402.8L819.3,416.6L800.2,408.5L800.2,386.5L819.3,372.6L838.3,380.8ZM876.4,397.9L857.4,411.2L838.3,402.8L838.3,380.8L857.4,367.2L876.4,375.9ZM914.5,394.8L895.5,407.1L876.4,397.9L876.4,375.9L895.5,363.1L914.5,372.8ZM952.6,394.1L933.6,405.1L914.5,394.8L914.5,372.8L933.6,361.1L952.6,372.1ZM990.7,395.8L971.7,405.6L952.6,394.1L952.6,372.1L971.7,361.6L990.7,373.8ZM1028.8,399.7L1009.8,408.5L990.7,395.8L990.7,373.8L1009.8,364.5L1028.8,377.7ZM1066.9,405.0L1047.9,413.3L1028.8,399.7L1028.8,377.7L1047.9,369.3L1066.9,383.0ZM1105.0,410.7L1086.0,418.9L1066.9,405.0L1066.9,383.0L1086.0,374.9L1105.0,388.7ZM1143.2,415.7L1124.1,424.4L1105.0,410.7L1105.0,388.7L1124.1,380.4L1143.2,393.7ZM1181.3,419.0L1162.2,428.6L1143.2,415.7L1143.2,393.7L1162.2,384.6L1181.3,397.0ZM1219.4,420.0L1200.3,430.8L1181.3,419.0L1181.3,397.0L1200.3,386.8L1219.4,398.0ZM1257.5,418.4L1238.4,430.5L1219.4,420.0L1219.4,398.0L1238.4,386.5L1257.5,396.4ZM1295.6,414.7L1276.5,427.8L1257.5,418.4L1257.5,396.4L1276.5,383.8L1295.6,392.7ZM1333.7,409.5L1314.6,423.2L1295.6,414.7L1295.6,392.7L1314.6,379.2L1333.7,387.5ZM1371.8,403.7L1352.7,417.6L1333.7,409.5L1333.7,387.5L1352.7,373.6L1371.8,381.7ZM1409.9,398.7L1390.8,412.1L1371.8,403.7L1371.8,381.7L1390.8,368.1L1409.9,376.7ZM1448.0,395.2L1428.9,407.7L1409.9,398.7L1409.9,376.7L1428.9,363.7L1448.0,373.2ZM-19.1,437.1L-38.1,445.4L-57.2,432.0L-57.2,410.0L-38.1,401.4L-19.1,415.1ZM19.1,442.9L0.0,451.0L-19.1,437.1L-19.1,415.1L-0.0,407.0L19.1,420.9ZM57.2,448.0L38.1,456.6L19.1,442.9L19.1,420.9L38.1,412.6L57.2,426.0ZM95.3,451.6L76.2,461.1L57.2,448.0L57.2,426.0L76.2,417.1L95.3,429.6ZM133.4,453.0L114.3,463.6L95.3,451.6L95.3,429.6L114.3,419.6L133.4,431.0ZM171.5,451.8L152.4,463.7L133.4,453.0L133.4,431.0L152.4,419.7L171.5,429.8ZM209.6,448.4L190.5,461.4L171.5,451.8L171.5,429.8L190.5,417.4L209.6,426.4ZM247.7,443.3L228.6,457.0L209.6,448.4L209.6,426.4L228.6,413.0L247.7,421.3ZM285.8,437.6L266.7,451.5L247.7,443.3L247.7,421.3L266.7,407.5L285.8,415.6ZM323.9,432.4L304.8,445.9L285.8,437.6L285.8,415.6L304.8,401.9L323.9,410.4ZM362.0,428.6L342.9,441.2L323.9,432.4L323.9,410.4L342.9,397.2L362.0,406.6ZM400.1,427.0L381.1,438.5L362.0,428.6L362.0,406.6L381.1,394.5L400.1,405.0ZM438.2,428.0L419.2,438.2L400.1,427.0L400.1,405.0L419.2,394.2L438.2,406.0ZM476.3,431.2L457.3,440.3L438.2,428.0L438.2,406.0L457.3,396.3L476.3,409.2ZM514.4,436.2L495.4,444.5L476.3,431.2L476.3,409.2L495.4,400.5L514.4,414.2ZM552.5,441.9L533.5,450.0L514.4,436.2L514.4,414.2L533.5,406.0L552.5,419.9ZM590.6,447.2L571.6,455.7L552.5,441.9L552.5,419.9L571.6,411.7L590.6,425.2ZM628.7,451.2L609.7,460.4L590.6,447.2L590.6,425.2L609.7,416.4L628.7,429.2ZM666.8,452.9L647.8,463.4L628.7,451.2L628.7,429.2L647.8,419.4L666.8,430.9ZM704.9,452.2L685.9,463.9L666.8,452.9L666.8,430.9L685.9,419.9L704.9,430.2ZM743.0,449.1L724.0,461.9L704.9,452.2L704.9,430.2L724.0,417.9L743.0,427.1ZM781.2,444.3L762.1,457.9L743.0,449.1L743.0,427.1L762.1,413.9L781.2,422.3ZM819.3,438.6L800.2,452.5L781.2,444.3L781.2,422.3L800.2,408.5L819.3,416.6ZM857.4,433.2L838.3,446.8L819.3,438.6L819.3,416.6L838.3,402.8L857.4,411.2ZM895.5,429.1L876.4,441.9L857.4,433.2L857.4,411.2L876.4,397.9L895.5,407.1ZM933.6,427.1L914.5,438.8L895.5,429.1L895.5,407.1L914.5,394.8L933.6,405.1ZM971.7,427.6L952.6,438.1L933.6,427.1L933.6,405.1L952.6,394.1L971.7,405.6ZM1009.8,430.5L990.7,439.8L971.7,427.6L971.7,405.6L990.7,395.8L1009.8,408.5ZM1047.9,435.3L1028.8,443.7L1009.8,430.5L1009.8,408.5L1028.8,399.7L1047.9,413.3ZM1086.0,440.9L1066.9,449.0L1047.9,435.3L1047.9,413.3L1066.9,405.0L1086.0,418.9ZM1124.1,446.4L1105.0,454.7L1086.0,440.9L1086.0,418.9L1105.0,410.7L1124.1,424.4ZM1162.2,450.6L1143.2,459.7L1124.1,446.4L1124.1,424.4L1143.2,415.7L1162.2,428.6ZM1200.3,452.8L1181.3,463.0L1162.2,450.6L1162.2,428.6L1181.3,419.0L1200.3,430.8ZM1238.4,452.5L1219.4,464.0L1200.3,452.8L1200.3,430.8L1219.4,420.0L1238.4,430.5ZM1276.5,449.8L1257.5,462.4L1238.4,452.5L1238.4,430.5L1257.5,418.4L1276.5,427.8ZM1314.6,445.2L1295.6,458.7L1276.5,449.8L1276.5,427.8L1295.6,414.7L1314.6,423.2ZM1352.7,439.6L1333.7,453.5L1314.6,445.2L1314.6,423.2L1333.7,409.5L1352.7,417.6ZM1390.8,434.1L1371.8,447.7L1352.7,439.6L1352.7,417.6L1371.8,403.7L1390.8,412.1ZM1428.9,429.7L1409.9,442.7L1390.8,434.1L1390.8,412.1L1409.9,398.7L1428.9,407.7ZM0.0,473.0L-19.1,481.1L-38.1,467.4L-38.1,445.4L-19.1,437.1L-0.0,451.0ZM38.1,478.6L19.1,486.9L-0.0,473.0L0.0,451.0L19.1,442.9L38.1,456.6ZM76.2,483.1L57.2,492.0L38.1,478.6L38.1,456.6L57.2,448.0L76.2,461.1ZM114.3,485.6L95.3,495.6L76.2,483.1L76.2,461.1L95.3,451.6L114.3,463.6ZM152.4,485.7L133.4,497.0L114.3,485.6L114.3,463.6L133.4,453.0L152.4,463.7ZM190.5,483.4L171.5,495.8L152.4,485.7L152.4,463.7L171.5,451.8L190.5,461.4ZM228.6,479.0L209.6,492.4L190.5,483.4L190.5,461.4L209.6,448.4L228.6,457.0ZM266.7,473.5L247.7,487.3L228.6,479.0L228.6,457.0L247.7,443.3L266.7,451.5ZM304.8,467.9L285.8,481.6L266.7,473.5L266.7,451.5L285.8,437.6L304.8,445.9ZM342.9,463.2L323.9,476.4L304.8,467.9L304.8,445.9L323.9,432.4L342.9,441.2ZM381.1,460.5L362.0,472.6L342.9,463.2L342.9,441.2L362.0,428.6L381.1,438.5ZM419.2,460.2L400.1,471.0L381.1,460.5L381.1,438.5L400.1,427.0L419.2,438.2ZM457.3,462.3L438.2,472.0L419.2,460.2L419.2,438.2L438.2,428.0L457.3,440.3ZM495.4,466.5L476.3,475.2L457.3,462.3L457.3,440.3L476.3,431.2L495.4,444.5ZM533.5,472.0L514.4,480.2L495.4,466.5L495.4,444.5L514.4,436.2L533.5,450.0ZM571.6,477.7L552.5,485.9L533.5,472.0L533.5,450.0L552.5,441.9L571.6,455.7ZM609.7,482.4L590.6,491.2L571.6,477.7L571.6,455.7L590.6,447.2L609.7,460.4ZM647.8,485.4L628.7,495.2L609.7,482.4L609.7,460.4L628.7,451.2L647.8,463.4ZM685.9,485.9L666.8,496.9L647.8,485.4L647.8,463.4L666.8,452.9L685.9,463.9ZM724.0,483.9L704.9,496.2L685.9,485.9L685.9,463.9L704.9,452.2L724.0,461.9ZM762.1,479.9L743.0,493.1L724.0,483.9L724.0,461.9L743.0,449.1L762.1,457.9ZM800.2,474.5L781.2,488.3L762.1,479.9L762.1,457.9L781.2,444.3L800.2,452.5ZM838.3,468.8L819.3,482.6L800.2,474.5L800.2,452.5L819.3,438.6L838.3,446.8ZM876.4,463.9L857.4,477.2L838.3,468.8L838.3,446.8L857.4,433.2L876.4,441.9ZM914.5,460.8L895.5,473.1L876.4,463.9L876.4,441.9L895.5,429.1L914.5,438.8ZM952.6,460.1L933.6,471.1L914.5,460.8L914.5,438.8L933.6,427.1L952.6,438.1ZM990.7,461.8L971.7,471.6L952.6,460.1L952.6,438.1L971.7,427.6L990.7,439.8ZM1028.8,465.7L1009.8,474.5L990.7,461.8L990.7,439.8L1009.8,430.5L1028.8,443.7ZM1066.9,471.0L1047.9,479.3L1028.8,465.7L1028.8,443.7L1047.9,435.3L1066.9,449.0ZM1105.0,476.7L1086.0,484.9L1066.9,471.0L1066.9,449.0L1086.0,440.9L1105.0,454.7ZM1143.2,481.7L1124.1,490.4L1105.0,476.7L1105.0,454.7L1124.1,446.4L1143.2,459.7ZM1181.3,485.0L1162.2,494.6L1143.2,481.7L1143.2,459.7L1162.2,450.6L1181.3,463.0ZM1219.4,486.0L1200.3,496.8L1181.3,485.0L1181.3,463.0L1200.3,452.8L1219.4,464.0ZM1257.5,484.4L1238.4,496.5L1219.4,486.0L1219.4,464.0L1238.4,452.5L1257.5,462.4ZM1295.6,480.7L1276.5,493.8L1257.5,484.4L1257.5,462.4L1276.5,449.8L1295.6,458.7ZM1333.7,475.5L1314.6,489.2L1295.6,480.7L1295.6,458.7L1314.6,445.2L1333.7,453.5ZM1371.8,469.7L1352.7,483.6L1333.7,475.5L1333.7,453.5L1352.7,439.6L1371.8,447.7ZM1409.9,464.7L1390.8,478.1L1371.8,469.7L1371.8,447.7L1390.8,434.1L1409.9,442.7ZM1448.0,461.2L1428.9,473.7L1409.9,464.7L1409.9,442.7L1428.9,429.7L1448.0,439.2ZM-19.1,503.1L-38.1,511.4L-57.2,498.0L-57.2,476.0L-38.1,467.4L-19.1,481.1ZM19.1,508.9L0.0,517.0L-19.1,503.1L-19.1,481.1L-0.0,473.0L19.1,486.9ZM57.2,514.0L38.1,522.6L19.1,508.9L19.1,486.9L38.1,478.6L57.2,492.0ZM95.3,517.6L76.2,527.1L57.2,514.0L57.2,492.0L76.2,483.1L95.3,495.6ZM133.4,519.0L114.3,529.6L95.3,517.6L95.3,495.6L114.3,485.6L133.4,497.0ZM171.5,517.8L152.4,529.7L133.4,519.0L133.4,497.0L152.4,485.7L171.5,495.8ZM209.6,514.4L190.5,527.4L171.5,517.8L171.5,495.8L190.5,483.4L209.6,492.4ZM247.7,509.3L228.6,523.0L209.6,514.4L209.6,492.4L228.6,479.0L247.7,487.3ZM285.8,503.6L266.7,517.5L247.7,509.3L247.7,487.3L266.7,473.5L285.8,481.6ZM323.9,498.4L304.8,511.9L285.8,503.6L285.8,481.6L304.8,467.9L323.9,476.4ZM362.0,494.6L342.9,507.2L323.9,498.4L323.9,476.4L342.9,463.2L362.0,472.6ZM400.1,493.0L381.1,504.5L362.0,494.6L362.0,472.6L381.1,460.5L400.1,471.0ZM438.2,494.0L419.2,504.2L400.1,493.0L400.1,471.0L419.2,460.2L438.2,472.0ZM476.3,497.2L457.3,506.3L438.2,494.0L438.2,472.0L457.3,462.3L476.3,475.2ZM514.4,502.2L495.4,510.5L476.3,497.2L476.3,475.2L495.4,466.5L514.4,480.2ZM552.5,507.9L533.5,516.0L514.4,502.2L514.4,480.2L533.5,472.0L552.5,485.9ZM590.6,513.2L571.6,521.7L552.5,507.9L552.5,485.9L571.6,477.7L590.6,491.2ZM628.7,517.2L609.7,526.4L590.6,513.2L590.6,491.2L609.7,482.4L628.7,495.2ZM666.8,518.9L647.8,529.4L628.7,517.2L628.7,495.2L647.8,485.4L666.8,496.9ZM704.9,518.2L685.9,529.9L666.8,518.9L666.8,496.9L685.9,485.9L704.9,496.2ZM743.0,515.1L724.0,527.9L704.9,518.2L704.9,496.2L724.0,483.9L743.0,493.1ZM781.2,510.3L762.1,523.9L743.0,515.1L743.0,493.1L762.1,479.9L781.2,488.3ZM819.3,504.6L800.2,518.5L781.2,510.3L781.2,488.3L800.2,474.5L819.3,482.6ZM857.4,499.2L838.3,512.8L819.3,504.6L819.3,482.6L838.3,468.8L857.4,477.2ZM895.5,495.1L876.4,507.9L857.4,499.2L857.4,477.2L876.4,463.9L895.5,473.1ZM933.6,493.1L914.5,504.8L895.5,495.1L895.5,473.1L914.5,460.8L933.6,471.1ZM971.7,493.6L952.6,504.1L933.6,493.1L933.6,471.1L952.6,460.1L971.7,471.6ZM1009.8,496.5L990.7,505.8L971.7,493.6L971.7,471.6L990.7,461.8L1009.8,474.5ZM1047.9,501.3L1028.8,509.7L1009.8,496.5L1009.8,474.5L1028.8,465.7L1047.9,479.3ZM1086.0,506.9L1066.9,515.0L1047.9,501.3L1047.9,479.3L1066.9,471.0L1086.0,484.9ZM1124.1,512.4L1105.0,520.7L1086.0,506.9L1086.0,484.9L1105.0,476.7L1124.1,490.4ZM1162.2,516.6L1143.2,525.7L1124.1,512.4L1124.1,490.4L1143.2,481.7L1162.2,494.6ZM1200.3,518.8L1181.3,529.0L1162.2,516.6L1162.2,494.6L1181.3,485.0L1200.3,496.8ZM1238.4,518.5L1219.4,530.0L1200.3,518.8L1200.3,496.8L1219.4,486.0L1238.4,496.5ZM1276.5,515.8L1257.5,528.4L1238.4,518.5L1238.4,496.5L1257.5,484.4L1276.5,493.8ZM1314.6,511.2L1295.6,524.7L1276.5,515.8L1276.5,493.8L1295.6,480.7L1314.6,489.2ZM1352.7,505.6L1333.7,519.5L1314.6,511.2L1314.6,489.2L1333.7,475.5L1352.7,483.6ZM1390.8,500.1L1371.8,513.7L1352.7,505.6L1352.7,483.6L1371.8,469.7L1390.8,478.1ZM1428.9,495.7L1409.9,508.7L1390.8,500.1L1390.8,478.1L1409.9,464.7L1428.9,473.7ZM0.0,539.0L-19.1,547.1L-38.1,533.4L-38.1,511.4L-19.1,503.1L-0.0,517.0ZM38.1,544.6L19.1,552.9L-0.0,539.0L0.0,517.0L19.1,508.9L38.1,522.6ZM76.2,549.1L57.2,558.0L38.1,544.6L38.1,522.6L57.2,514.0L76.2,527.1ZM114.3,551.6L95.3,561.6L76.2,549.1L76.2,527.1L95.3,517.6L114.3,529.6ZM152.4,551.7L133.4,563.0L114.3,551.6L114.3,529.6L133.4,519.0L152.4,529.7ZM190.5,549.4L171.5,561.8L152.4,551.7L152.4,529.7L171.5,517.8L190.5,527.4ZM228.6,545.0L209.6,558.4L190.5,549.4L190.5,527.4L209.6,514.4L228.6,523.0ZM266.7,539.5L247.7,553.3L228.6,545.0L228.6,523.0L247.7,509.3L266.7,517.5ZM304.8,533.9L285.8,547.6L266.7,539.5L266.7,517.5L285.8,503.6L304.8,511.9ZM342.9,529.2L323.9,542.4L304.8,533.9L304.8,511.9L323.9,498.4L342.9,507.2ZM381.1,526.5L362.0,538.6L342.9,529.2L342.9,507.2L362.0,494.6L381.1,504.5ZM419.2,526.2L400.1,537.0L381.1,526.5L381.1,504.5L400.1,493.0L419.2,504.2ZM457.3,528.3L438.2,538.0L419.2,526.2L419.2,504.2L438.2,494.0L457.3,506.3ZM495.4,532.5L476.3,541.2L457.3,528.3L457.3,506.3L476.3,497.2L495.4,510.5ZM533.5,538.0L514.4,546.2L495.4,532.5L495.4,510.5L514.4,502.2L533.5,516.0ZM571.6,543.7L552.5,551.9L533.5,538.0L533.5,516.0L552.5,507.9L571.6,521.7ZM609.7,548.4L590.6,557.2L571.6,543.7L571.6,521.7L590.6,513.2L609.7,526.4ZM647.8,551.4L628.7,561.2L609.7,548.4L609.7,526.4L628.7,517.2L647.8,529.4ZM685.9,551.9L666.8,562.9L647.8,551.4L647.8,529.4L666.8,518.9L685.9,529.9ZM724.0,549.9L704.9,562.2L685.9,551.9L685.9,529.9L704.9,518.2L724.0,527.9ZM762.1,545.9L743.0,559.1L724.0,549.9L724.0,527.9L743.0,515.1L762.1,523.9ZM800.2,540.5L781.2,554.3L762.1,545.9L762.1,523.9L781.2,510.3L800.2,518.5ZM838.3,534.8L819.3,548.6L800.2,540.5L800.2,518.5L819.3,504.6L838.3,512.8ZM876.4,529.9L857.4,543.2L838.3,534.8L838.3,512.8L857.4,499.2L876.4,507.9ZM914.5,526.8L895.5,539.1L876.4,529.9L876.4,507.9L895.5,495.1L914.5,504.8ZM952.6,526.1L933.6,537.1L914.5,526.8L914.5,504.8L933.6,493.1L952.6,504.1ZM990.7,527.8L971.7,537.6L952.6,526.1L952.6,504.1L971.7,493.6L990.7,505.8ZM1028.8,531.7L1009.8,540.5L990.7,527.8L990.7,505.8L1009.8,496.5L1028.8,509.7ZM1066.9,537.0L1047.9,545.3L1028.8,531.7L1028.8,509.7L1047.9,501.3L1066.9,515.0ZM1105.0,542.7L1086.0,550.9L1066.9,537.0L1066.9,515.0L1086.0,506.9L1105.0,520.7ZM1143.2,547.7L1124.1,556.4L1105.0,542.7L1105.0,520.7L1124.1,512.4L1143.2,525.7ZM1181.3,551.0L1162.2,560.6L1143.2,547.7L1143.2,525.7L1162.2,516.6L1181.3,529.0ZM1219.4,552.0L1200.3,562.8L1181.3,551.0L1181.3,529.0L1200.3,518.8L1219.4,530.0ZM1257.5,550.4L1238.4,562.5L1219.4,552.0L1219.4,530.0L1238.4,518.5L1257.5,528.4ZM1295.6,546.7L1276.5,559.8L1257.5,550.4L1257.5,528.4L1276.5,515.8L1295.6,524.7ZM1333.7,541.5L1314.6,555.2L1295.6,546.7L1295.6,524.7L1314.6,511.2L1333.7,519.5ZM1371.8,535.7L1352.7,549.6L1333.7,541.5L1333.7,519.5L1352.7,505.6L1371.8,513.7ZM1409.9,530.7L1390.8,544.1L1371.8,535.7L1371.8,513.7L1390.8,500.1L1409.9,508.7ZM1448.0,527.2L1428.9,539.7L1409.9,530.7L1409.9,508.7L1428.9,495.7L1448.0,505.2ZM-19.1,569.1L-38.1,577.4L-57.2,564.0L-57.2,542.0L-38.1,533.4L-19.1,547.1ZM19.1,574.9L0.0,583.0L-19.1,569.1L-19.1,547.1L-0.0,539.0L19.1,552.9ZM57.2,580.0L38.1,588.6L19.1,574.9L19.1,552.9L38.1,544.6L57.2,558.0ZM95.3,583.6L76.2,593.1L57.2,580.0L57.2,558.0L76.2,549.1L95.3,561.6ZM133.4,585.0L114.3,595.6L95.3,583.6L95.3,561.6L114.3,551.6L133.4,563.0ZM171.5,583.8L152.4,595.7L133.4,585.0L133.4,563.0L152.4,551.7L171.5,561.8ZM209.6,580.4L190.5,593.4L171.5,583.8L171.5,561.8L190.5,549.4L209.6,558.4ZM247.7,575.3L228.6,589.0L209.6,580.4L209.6,558.4L228.6,545.0L247.7,553.3ZM285.8,569.6L266.7,583.5L247.7,575.3L247.7,553.3L266.7,539.5L285.8,547.6ZM323.9,564.4L304.8,577.9L285.8,569.6L285.8,547.6L304.8,533.9L323.9,542.4ZM362.0,560.6L342.9,573.2L323.9,564.4L323.9,542.4L342.9,529.2L362.0,538.6ZM400.1,559.0L381.1,570.5L362.0,560.6L362.0,538.6L381.1,526.5L400.1,537.0ZM438.2,560.0L419.2,570.2L400.1,559.0L400.1,537.0L419.2,526.2L438.2,538.0ZM476.3,563.2L457.3,572.3L438.2,560.0L438.2,538.0L457.3,528.3L476.3,541.2ZM514.4,568.2L495.4,576.5L476.3,563.2L476.3,541.2L495.4,532.5L514.4,546.2ZM552.5,573.9L533.5,582.0L514.4,568.2L514.4,546.2L533.5,538.0L552.5,551.9ZM590.6,579.2L571.6,587.7L552.5,573.9L552.5,551.9L571.6,543.7L590.6,557.2ZM628.7,583.2L609.7,592.4L590.6,579.2L590.6,557.2L609.7,548.4L628.7,561.2ZM666.8,584.9L647.8,595.4L628.7,583.2L628.7,561.2L647.8,551.4L666.8,562.9ZM704.9,584.2L685.9,595.9L666.8,584.9L666.8,562.9L685.9,551.9L704.9,562.2ZM743.0,581.1L724.0,593.9L704.9,584.2L704.9,562.2L724.0,549.9L743.0,559.1ZM781.2,576.3L762.1,589.9L743.0,581.1L743.0,559.1L762.1,545.9L781.2,554.3ZM819.3,570.6L800.2,584.5L781.2,576.3L781.2,554.3L800.2,540.5L819.3,548.6ZM857.4,565.2L838.3,578.8L819.3,570.6L819.3,548.6L838.3,534.8L857.4,543.2ZM895.5,561.1L876.4,573.9L857.4,565.2L857.4,543.2L876.4,529.9L895.5,539.1ZM933.6,559.1L914.5,570.8L895.5,561.1L895.5,539.1L914.5,526.8L933.6,537.1ZM971.7,559.6L952.6,570.1L933.6,559.1L933.6,537.1L952.6,526.1L971.7,537.6ZM1009.8,562.5L990.7,571.8L971.7,559.6L971.7,537.6L990.7,527.8L1009.8,540.5ZM1047.9,567.3L1028.8,575.7L1009.8,562.5L1009.8,540.5L1028.8,531.7L1047.9,545.3ZM1086.0,572.9L1066.9,581.0L1047.9,567.3L1047.9,545.3L1066.9,537.0L1086.0,550.9ZM1124.1,578.4L1105.0,586.7L1086.0,572.9L1086.0,550.9L1105.0,542.7L1124.1,556.4ZM1162.2,582.6L1143.2,591.7L1124.1,578.4L1124.1,556.4L1143.2,547.7L1162.2,560.6ZM1200.3,584.8L1181.3,595.0L1162.2,582.6L1162.2,560.6L1181.3,551.0L1200.3,562.8ZM1238.4,584.5L1219.4,596.0L1200.3,584.8L1200.3,562.8L1219.4,552.0L1238.4,562.5ZM1276.5,581.8L1257.5,594.4L1238.4,584.5L1238.4,562.5L1257.5,550.4L1276.5,559.8ZM1314.6,577.2L1295.6,590.7L1276.5,581.8L1276.5,559.8L1295.6,546.7L1314.6,555.2ZM1352.7,571.6L1333.7,585.5L1314.6,577.2L1314.6,555.2L1333.7,541.5L1352.7,549.6ZM1390.8,566.1L1371.8,579.7L1352.7,571.6L1352.7,549.6L1371.8,535.7L1390.8,544.1ZM1428.9,561.7L1409.9,574.7L1390.8,566.1L1390.8,544.1L1409.9,530.7L1428.9,539.7ZM0.0,605.0L-19.1,613.1L-38.1,599.4L-38.1,577.4L-19.1,569.1L-0.0,583.0ZM38.1,610.6L19.1,618.9L-0.0,605.0L0.0,583.0L19.1,574.9L38.1,588.6ZM76.2,615.1L57.2,624.0L38.1,610.6L38.1,588.6L57.2,580.0L76.2,593.1ZM114.3,617.6L95.3,627.6L76.2,615.1L76.2,593.1L95.3,583.6L114.3,595.6ZM152.4,617.7L133.4,629.0L114.3,617.6L114.3,595.6L133.4,585.0L152.4,595.7ZM190.5,615.4L171.5,627.8L152.4,617.7L152.4,595.7L171.5,583.8L190.5,593.4ZM228.6,611.0L209.6,624.4L190.5,615.4L190.5,593.4L209.6,580.4L228.6,589.0ZM266.7,605.5L247.7,619.3L228.6,611.0L228.6,589.0L247.7,575.3L266.7,583.5ZM304.8,599.9L285.8,613.6L266.7,605.5L266.7,583.5L285.8,569.6L304.8,577.9ZM342.9,595.2L323.9,608.4L304.8,599.9L304.8,577.9L323.9,564.4L342.9,573.2ZM381.1,592.5L362.0,604.6L342.9,595.2L342.9,573.2L362.0,560.6L381.1,570.5ZM419.2,592.2L400.1,603.0L381.1,592.5L381.1,570.5L400.1,559.0L419.2,570.2ZM457.3,594.3L438.2,604.0L419.2,592.2L419.2,570.2L438.2,560.0L457.3,572.3ZM495.4,598.5L476.3,607.2L457.3,594.3L457.3,572.3L476.3,563.2L495.4,576.5ZM533.5,604.0L514.4,612.2L495.4,598.5L495.4,576.5L514.4,568.2L533.5,582.0ZM571.6,609.7L552.5,617.9L533.5,604.0L533.5,582.0L552.5,573.9L571.6,587.7ZM609.7,614.4L590.6,623.2L571.6,609.7L571.6,587.7L590.6,579.2L609.7,592.4ZM647.8,617.4L628.7,627.2L609.7,614.4L609.7,592.4L628.7,583.2L647.8,595.4ZM685.9,617.9L666.8,628.9L647.8,617.4L647.8,595.4L666.8,584.9L685.9,595.9ZM724.0,615.9L704.9,628.2L685.9,617.9L685.9,595.9L704.9,584.2L724.0,593.9ZM762.1,611.9L743.0,625.1L724.0,615.9L724.0,593.9L743.0,581.1L762.1,589.9ZM800.2,606.5L781.2,620.3L762.1,611.9L762.1,589.9L781.2,576.3L800.2,584.5ZM838.3,600.8L819.3,614.6L800.2,606.5L800.2,584.5L819.3,570.6L838.3,578.8ZM876.4,595.9L857.4,609.2L838.3,600.8L838.3,578.8L857.4,565.2L876.4,573.9ZM914.5,592.8L895.5,605.1L876.4,595.9L876.4,573.9L895.5,561.1L914.5,570.8ZM952.6,592.1L933.6,603.1L914.5,592.8L914.5,570.8L933.6,559.1L952.6,570.1ZM990.7,593.8L971.7,603.6L952.6,592.1L952.6,570.1L971.7,559.6L990.7,571.8ZM1028.8,597.7L1009.8,606.5L990.7,593.8L990.7,571.8L1009.8,562.5L1028.8,575.7ZM1066.9,603.0L1047.9,611.3L1028.8,597.7L1028.8,575.7L1047.9,567.3L1066.9,581.0ZM1105.0,608.7L1086.0,616.9L1066.9,603.0L1066.9,581.0L1086.0,572.9L1105.0,586.7ZM1143.2,613.7L1124.1,622.4L1105.0,608.7L1105.0,586.7L1124.1,578.4L1143.2,591.7ZM1181.3,617.0L1162.2,626.6L1143.2,613.7L1143.2,591.7L1162.2,582.6L1181.3,595.0ZM1219.4,618.0L1200.3,628.8L1181.3,617.0L1181.3,595.0L1200.3,584.8L1219.4,596.0ZM1257.5,616.4L1238.4,628.5L1219.4,618.0L1219.4,596.0L1238.4,584.5L1257.5,594.4ZM1295.6,612.7L1276.5,625.8L1257.5,616.4L1257.5,594.4L1276.5,581.8L1295.6,590.7ZM1333.7,607.5L1314.6,621.2L1295.6,612.7L1295.6,590.7L1314.6,577.2L1333.7,585.5ZM1371.8,601.7L1352.7,615.6L1333.7,607.5L1333.7,585.5L1352.7,571.6L1371.8,579.7ZM1409.9,596.7L1390.8,610.1L1371.8,601.7L1371.8,579.7L1390.8,566.1L1409.9,574.7ZM1448.0,593.2L1428.9,605.7L1409.9,596.7L1409.9,574.7L1428.9,561.7L1448.0,571.2ZM-19.1,635.1L-38.1,643.4L-57.2,630.0L-57.2,608.0L-38.1,599.4L-19.1,613.1ZM19.1,640.9L0.0,649.0L-19.1,635.1L-19.1,613.1L-0.0,605.0L19.1,618.9ZM57.2,646.0L38.1,654.6L19.1,640.9L19.1,618.9L38.1,610.6L57.2,624.0ZM95.3,649.6L76.2,659.1L57.2,646.0L57.2,624.0L76.2,615.1L95.3,627.6ZM133.4,651.0L114.3,661.6L95.3,649.6L95.3,627.6L114.3,617.6L133.4,629.0ZM171.5,649.8L152.4,661.7L133.4,651.0L133.4,629.0L152.4,617.7L171.5,627.8ZM209.6,646.4L190.5,659.4L171.5,649.8L171.5,627.8L190.5,615.4L209.6,624.4ZM247.7,641.3L228.6,655.0L209.6,646.4L209.6,624.4L228.6,611.0L247.7,619.3ZM285.8,635.6L266.7,649.5L247.7,641.3L247.7,619.3L266.7,605.5L285.8,613.6ZM323.9,630.4L304.8,643.9L285.8,635.6L285.8,613.6L304.8,599.9L323.9,608.4ZM362.0,626.6L342.9,639.2L323.9,630.4L323.9,608.4L342.9,595.2L362.0,604.6ZM400.1,625.0L381.1,636.5L362.0,626.6L362.0,604.6L381.1,592.5L400.1,603.0ZM438.2,626.0L419.2,636.2L400.1,625.0L400.1,603.0L419.2,592.2L438.2,604.0ZM476.3,629.2L457.3,638.3L438.2,626.0L438.2,604.0L457.3,594.3L476.3,607.2ZM514.4,634.2L495.4,642.5L476.3,629.2L476.3,607.2L495.4,598.5L514.4,612.2ZM552.5,639.9L533.5,648.0L514.4,634.2L514.4,612.2L533.5,604.0L552.5,617.9ZM590.6,645.2L571.6,653.7L552.5,639.9L552.5,617.9L571.6,609.7L590.6,623.2ZM628.7,649.2L609.7,658.4L590.6,645.2L590.6,623.2L609.7,614.4L628.7,627.2ZM666.8,650.9L647.8,661.4L628.7,649.2L628.7,627.2L647.8,617.4L666.8,628.9ZM704.9,650.2L685.9,661.9L666.8,650.9L666.8,628.9L685.9,617.9L704.9,628.2ZM743.0,647.1L724.0,659.9L704.9,650.2L704.9,628.2L724.0,615.9L743.0,625.1ZM781.2,642.3L762.1,655.9L743.0,647.1L743.0,625.1L762.1,611.9L781.2,620.3ZM819.3,636.6L800.2,650.5L781.2,642.3L781.2,620.3L800.2,606.5L819.3,614.6ZM857.4,631.2L838.3,644.8L819.3,636.6L819.3,614.6L838.3,600.8L857.4,609.2ZM895.5,627.1L876.4,639.9L857.4,631.2L857.4,609.2L876.4,595.9L895.5,605.1ZM933.6,625.1L914.5,636.8L895.5,627.1L895.5,605.1L914.5,592.8L933.6,603.1ZM971.7,625.6L952.6,636.1L933.6,625.1L933.6,603.1L952.6,592.1L971.7,603.6ZM1009.8,628.5L990.7,637.8L971.7,625.6L971.7,603.6L990.7,593.8L1009.8,606.5ZM1047.9,633.3L1028.8,641.7L1009.8,628.5L1009.8,606.5L1028.8,597.7L1047.9,611.3ZM1086.0,638.9L1066.9,647.0L1047.9,633.3L1047.9,611.3L1066.9,603.0L1086.0,616.9ZM1124.1,644.4L1105.0,652.7L1086.0,638.9L1086.0,616.9L1105.0,608.7L1124.1,622.4ZM1162.2,648.6L1143.2,657.7L1124.1,644.4L1124.1,622.4L1143.2,613.7L1162.2,626.6ZM1200.3,650.8L1181.3,661.0L1162.2,648.6L1162.2,626.6L1181.3,617.0L1200.3,628.8ZM1238.4,650.5L1219.4,662.0L1200.3,650.8L1200.3,628.8L1219.4,618.0L1238.4,628.5ZM1276.5,647.8L1257.5,660.4L1238.4,650.5L1238.4,628.5L1257.5,616.4L1276.5,625.8ZM1314.6,643.2L1295.6,656.7L1276.5,647.8L1276.5,625.8L1295.6,612.7L1314.6,621.2ZM1352.7,637.6L1333.7,651.5L1314.6,643.2L1314.6,621.2L1333.7,607.5L1352.7,615.6ZM1390.8,632.1L1371.8,645.7L1352.7,637.6L1352.7,615.6L1371.8,601.7L1390.8,610.1ZM1428.9,627.7L1409.9,640.7L1390.8,632.1L1390.8,610.1L1409.9,596.7L1428.9,605.7ZM0.0,671.0L-19.1,679.1L-38.1,665.4L-38.1,643.4L-19.1,635.1L-0.0,649.0ZM38.1,676.6L19.1,684.9L-0.0,671.0L0.0,649.0L19.1,640.9L38.1,654.6ZM76.2,681.1L57.2,690.0L38.1,676.6L38.1,654.6L57.2,646.0L76.2,659.1ZM114.3,683.6L95.3,693.6L76.2,681.1L76.2,659.1L95.3,649.6L114.3,661.6ZM152.4,683.7L133.4,695.0L114.3,683.6L114.3,661.6L133.4,651.0L152.4,661.7ZM190.5,681.4L171.5,693.8L152.4,683.7L152.4,661.7L171.5,649.8L190.5,659.4ZM228.6,677.0L209.6,690.4L190.5,681.4L190.5,659.4L209.6,646.4L228.6,655.0ZM266.7,671.5L247.7,685.3L228.6,677.0L228.6,655.0L247.7,641.3L266.7,649.5ZM304.8,665.9L285.8,679.6L266.7,671.5L266.7,649.5L285.8,635.6L304.8,643.9ZM342.9,661.2L323.9,674.4L304.8,665.9L304.8,643.9L323.9,630.4L342.9,639.2ZM381.1,658.5L362.0,670.6L342.9,661.2L342.9,639.2L362.0,626.6L381.1,636.5ZM419.2,658.2L400.1,669.0L381.1,658.5L381.1,636.5L400.1,625.0L419.2,636.2ZM457.3,660.3L438.2,670.0L419.2,658.2L419.2,636.2L438.2,626.0L457.3,638.3ZM495.4,664.5L476.3,673.2L457.3,660.3L457.3,638.3L476.3,629.2L495.4,642.5ZM533.5,670.0L514.4,678.2L495.4,664.5L495.4,642.5L514.4,634.2L533.5,648.0ZM571.6,675.7L552.5,683.9L533.5,670.0L533.5,648.0L552.5,639.9L571.6,653.7ZM609.7,680.4L590.6,689.2L571.6,675.7L571.6,653.7L590.6,645.2L609.7,658.4ZM647.8,683.4L628.7,693.2L609.7,680.4L609.7,658.4L628.7,649.2L647.8,661.4ZM685.9,683.9L666.8,694.9L647.8,683.4L647.8,661.4L666.8,650.9L685.9,661.9ZM724.0,681.9L704.9,694.2L685.9,683.9L685.9,661.9L704.9,650.2L724.0,659.9ZM762.1,677.9L743.0,691.1L724.0,681.9L724.0,659.9L743.0,647.1L762.1,655.9ZM800.2,672.5L781.2,686.3L762.1,677.9L762.1,655.9L781.2,642.3L800.2,650.5ZM838.3,666.8L819.3,680.6L800.2,672.5L800.2,650.5L819.3,636.6L838.3,644.8ZM876.4,661.9L857.4,675.2L838.3,666.8L838.3,644.8L857.4,631.2L876.4,639.9ZM914.5,658.8L895.5,671.1L876.4,661.9L876.4,639.9L895.5,627.1L914.5,636.8ZM952.6,658.1L933.6,669.1L914.5,658.8L914.5,636.8L933.6,625.1L952.6,636.1ZM990.7,659.8L971.7,669.6L952.6,658.1L952.6,636.1L971.7,625.6L990.7,637.8ZM1028.8,663.7L1009.8,672.5L990.7,659.8L990.7,637.8L1009.8,628.5L1028.8,641.7ZM1066.9,669.0L1047.9,677.3L1028.8,663.7L1028.8,641.7L1047.9,633.3L1066.9,647.0ZM1105.0,674.7L1086.0,682.9L1066.9,669.0L1066.9,647.0L1086.0,638.9L1105.0,652.7ZM1143.2,679.7L1124.1,688.4L1105.0,674.7L1105.0,652.7L1124.1,644.4L1143.2,657.7ZM1181.3,683.0L1162.2,692.6L1143.2,679.7L1143.2,657.7L1162.2,648.6L1181.3,661.0ZM1219.4,684.0L1200.3,694.8L1181.3,683.0L1181.3,661.0L1200.3,650.8L1219.4,662.0ZM1257.5,682.4L1238.4,694.5L1219.4,684.0L1219.4,662.0L1238.4,650.5L1257.5,660.4ZM1295.6,678.7L1276.5,691.8L1257.5,682.4L1257.5,660.4L1276.5,647.8L1295.6,656.7ZM1333.7,673.5L1314.6,687.2L1295.6,678.7L1295.6,656.7L1314.6,643.2L1333.7,651.5ZM1371.8,667.7L1352.7,681.6L1333.7,673.5L1333.7,651.5L1352.7,637.6L1371.8,645.7ZM1409.9,662.7L1390.8,676.1L1371.8,667.7L1371.8,645.7L1390.8,632.1L1409.9,640.7ZM1448.0,659.2L1428.9,671.7L1409.9,662.7L1409.9,640.7L1428.9,627.7L1448.0,637.2ZM-19.1,701.1L-38.1,709.4L-57.2,696.0L-57.2,674.0L-38.1,665.4L-19.1,679.1ZM19.1,706.9L0.0,715.0L-19.1,701.1L-19.1,679.1L-0.0,671.0L19.1,684.9ZM57.2,712.0L38.1,720.6L19.1,706.9L19.1,684.9L38.1,676.6L57.2,690.0ZM95.3,715.6L76.2,725.1L57.2,712.0L57.2,690.0L76.2,681.1L95.3,693.6ZM133.4,717.0L114.3,727.6L95.3,715.6L95.3,693.6L114.3,683.6L133.4,695.0ZM171.5,715.8L152.4,727.7L133.4,717.0L133.4,695.0L152.4,683.7L171.5,693.8ZM209.6,712.4L190.5,725.4L171.5,715.8L171.5,693.8L190.5,681.4L209.6,690.4ZM247.7,707.3L228.6,721.0L209.6,712.4L209.6,690.4L228.6,677.0L247.7,685.3ZM285.8,701.6L266.7,715.5L247.7,707.3L247.7,685.3L266.7,671.5L285.8,679.6ZM323.9,696.4L304.8,709.9L285.8,701.6L285.8,679.6L304.8,665.9L323.9,674.4ZM362.0,692.6L342.9,705.2L323.9,696.4L323.9,674.4L342.9,661.2L362.0,670.6ZM400.1,691.0L381.1,702.5L362.0,692.6L362.0,670.6L381.1,658.5L400.1,669.0ZM438.2,692.0L419.2,702.2L400.1,691.0L400.1,669.0L419.2,658.2L438.2,670.0ZM476.3,695.2L457.3,704.3L438.2,692.0L438.2,670.0L457.3,660.3L476.3,673.2ZM514.4,700.2L495.4,708.5L476.3,695.2L476.3,673.2L495.4,664.5L514.4,678.2ZM552.5,705.9L533.5,714.0L514.4,700.2L514.4,678.2L533.5,670.0L552.5,683.9ZM590.6,711.2L571.6,719.7L552.5,705.9L552.5,683.9L571.6,675.7L590.6,689.2ZM628.7,715.2L609.7,724.4L590.6,711.2L590.6,689.2L609.7,680.4L628.7,693.2ZM666.8,716.9L647.8,727.4L628.7,715.2L628.7,693.2L647.8,683.4L666.8,694.9ZM704.9,716.2L685.9,727.9L666.8,716.9L666.8,694.9L685.9,683.9L704.9,694.2ZM743.0,713.1L724.0,725.9L704.9,716.2L704.9,694.2L724.0,681.9L743.0,691.1ZM781.2,708.3L762.1,721.9L743.0,713.1L743.0,691.1L762.1,677.9L781.2,686.3ZM819.3,702.6L800.2,716.5L781.2,708.3L781.2,686.3L800.2,672.5L819.3,680.6ZM857.4,697.2L838.3,710.8L819.3,702.6L819.3,680.6L838.3,666.8L857.4,675.2ZM895.5,693.1L876.4,705.9L857.4,697.2L857.4,675.2L876.4,661.9L895.5,671.1ZM933.6,691.1L914.5,702.8L895.5,693.1L895.5,671.1L914.5,658.8L933.6,669.1ZM971.7,691.6L952.6,702.1L933.6,691.1L933.6,669.1L952.6,658.1L971.7,669.6ZM1009.8,694.5L990.7,703.8L971.7,691.6L971.7,669.6L990.7,659.8L1009.8,672.5ZM1047.9,699.3L1028.8,707.7L1009.8,694.5L1009.8,672.5L1028.8,663.7L1047.9,677.3ZM1086.0,704.9L1066.9,713.0L1047.9,699.3L1047.9,677.3L1066.9,669.0L1086.0,682.9ZM1124.1,710.4L1105.0,718.7L1086.0,704.9L1086.0,682.9L1105.0,674.7L1124.1,688.4ZM1162.2,714.6L1143.2,723.7L1124.1,710.4L1124.1,688.4L1143.2,679.7L1162.2,692.6ZM1200.3,716.8L1181.3,727.0L1162.2,714.6L1162.2,692.6L1181.3,683.0L1200.3,694.8ZM1238.4,716.5L1219.4,728.0L1200.3,716.8L1200.3,694.8L1219.4,684.0L1238.4,694.5ZM1276.5,713.8L1257.5,726.4L1238.4,716.5L1238.4,694.5L1257.5,682.4L1276.5,691.8ZM1314.6,709.2L1295.6,722.7L1276.5,713.8L1276.5,691.8L1295.6,678.7L1314.6,687.2ZM1352.7,703.6L1333.7,717.5L1314.6,709.2L1314.6,687.2L1333.7,673.5L1352.7,681.6ZM1390.8,698.1L1371.8,711.7L1352.7,703.6L1352.7,681.6L1371.8,667.7L1390.8,676.1ZM1428.9,693.7L1409.9,706.7L1390.8,698.1L1390.8,676.1L1409.9,662.7L1428.9,671.7ZM0.0,737.0L-19.1,745.1L-38.1,731.4L-38.1,709.4L-19.1,701.1L-0.0,715.0ZM38.1,742.6L19.1,750.9L-0.0,737.0L0.0,715.0L19.1,706.9L38.1,720.6ZM76.2,747.1L57.2,756.0L38.1,742.6L38.1,720.6L57.2,712.0L76.2,725.1ZM114.3,749.6L95.3,759.6L76.2,747.1L76.2,725.1L95.3,715.6L114.3,727.6ZM152.4,749.7L133.4,761.0L114.3,749.6L114.3,727.6L133.4,717.0L152.4,727.7ZM190.5,747.4L171.5,759.8L152.4,749.7L152.4,727.7L171.5,715.8L190.5,725.4ZM228.6,743.0L209.6,756.4L190.5,747.4L190.5,725.4L209.6,712.4L228.6,721.0ZM266.7,737.5L247.7,751.3L228.6,743.0L228.6,721.0L247.7,707.3L266.7,715.5ZM304.8,731.9L285.8,745.6L266.7,737.5L266.7,715.5L285.8,701.6L304.8,709.9ZM342.9,727.2L323.9,740.4L304.8,731.9L304.8,709.9L323.9,696.4L342.9,705.2ZM381.1,724.5L362.0,736.6L342.9,727.2L342.9,705.2L362.0,692.6L381.1,702.5ZM419.2,724.2L400.1,735.0L381.1,724.5L381.1,702.5L400.1,691.0L419.2,702.2ZM457.3,726.3L438.2,736.0L419.2,724.2L419.2,702.2L438.2,692.0L457.3,704.3ZM495.4,730.5L476.3,739.2L457.3,726.3L457.3,704.3L476.3,695.2L495.4,708.5ZM533.5,736.0L514.4,744.2L495.4,730.5L495.4,708.5L514.4,700.2L533.5,714.0ZM571.6,741.7L552.5,749.9L533.5,736.0L533.5,714.0L552.5,705.9L571.6,719.7ZM609.7,746.4L590.6,755.2L571.6,741.7L571.6,719.7L590.6,711.2L609.7,724.4ZM647.8,749.4L628.7,759.2L609.7,746.4L609.7,724.4L628.7,715.2L647.8,727.4ZM685.9,749.9L666.8,760.9L647.8,749.4L647.8,727.4L666.8,716.9L685.9,727.9ZM724.0,747.9L704.9,760.2L685.9,749.9L685.9,727.9L704.9,716.2L724.0,725.9ZM762.1,743.9L743.0,757.1L724.0,747.9L724.0,725.9L743.0,713.1L762.1,721.9ZM800.2,738.5L781.2,752.3L762.1,743.9L762.1,721.9L781.2,708.3L800.2,716.5ZM838.3,732.8L819.3,746.6L800.2,738.5L800.2,716.5L819.3,702.6L838.3,710.8ZM876.4,727.9L857.4,741.2L838.3,732.8L838.3,710.8L857.4,697.2L876.4,705.9ZM914.5,724.8L895.5,737.1L876.4,727.9L876.4,705.9L895.5,693.1L914.5,702.8ZM952.6,724.1L933.6,735.1L914.5,724.8L914.5,702.8L933.6,691.1L952.6,702.1ZM990.7,725.8L971.7,735.6L952.6,724.1L952.6,702.1L971.7,691.6L990.7,703.8ZM1028.8,729.7L1009.8,738.5L990.7,725.8L990.7,703.8L1009.8,694.5L1028.8,707.7ZM1066.9,735.0L1047.9,743.3L1028.8,729.7L1028.8,707.7L1047.9,699.3L1066.9,713.0ZM1105.0,740.7L1086.0,748.9L1066.9,735.0L1066.9,713.0L1086.0,704.9L1105.0,718.7ZM1143.2,745.7L1124.1,754.4L1105.0,740.7L1105.0,718.7L1124.1,710.4L1143.2,723.7ZM1181.3,749.0L1162.2,758.6L1143.2,745.7L1143.2,723.7L1162.2,714.6L1181.3,727.0ZM1219.4,750.0L1200.3,760.8L1181.3,749.0L1181.3,727.0L1200.3,716.8L1219.4,728.0ZM1257.5,748.4L1238.4,760.5L1219.4,750.0L1219.4,728.0L1238.4,716.5L1257.5,726.4ZM1295.6,744.7L1276.5,757.8L1257.5,748.4L1257.5,726.4L1276.5,713.8L1295.6,722.7ZM1333.7,739.5L1314.6,753.2L1295.6,744.7L1295.6,722.7L1314.6,709.2L1333.7,717.5ZM1371.8,733.7L1352.7,747.6L1333.7,739.5L1333.7,717.5L1352.7,703.6L1371.8,711.7ZM1409.9,728.7L1390.8,742.1L1371.8,733.7L1371.8,711.7L1390.8,698.1L1409.9,706.7ZM1448.0,725.2L1428.9,737.7L1409.9,728.7L1409.9,706.7L1428.9,693.7L1448.0,703.2ZM-19.1,767.1L-38.1,775.4L-57.2,762.0L-57.2,740.0L-38.1,731.4L-19.1,745.1ZM19.1,772.9L0.0,781.0L-19.1,767.1L-19.1,745.1L-0.0,737.0L19.1,750.9ZM57.2,778.0L38.1,786.6L19.1,772.9L19.1,750.9L38.1,742.6L57.2,756.0ZM95.3,781.6L76.2,791.1L57.2,778.0L57.2,756.0L76.2,747.1L95.3,759.6ZM133.4,783.0L114.3,793.6L95.3,781.6L95.3,759.6L114.3,749.6L133.4,761.0ZM171.5,781.8L152.4,793.7L133.4,783.0L133.4,761.0L152.4,749.7L171.5,759.8ZM209.6,778.4L190.5,791.4L171.5,781.8L171.5,759.8L190.5,747.4L209.6,756.4ZM247.7,773.3L228.6,787.0L209.6,778.4L209.6,756.4L228.6,743.0L247.7,751.3ZM285.8,767.6L266.7,781.5L247.7,773.3L247.7,751.3L266.7,737.5L285.8,745.6ZM323.9,762.4L304.8,775.9L285.8,767.6L285.8,745.6L304.8,731.9L323.9,740.4ZM362.0,758.6L342.9,771.2L323.9,762.4L323.9,740.4L342.9,727.2L362.0,736.6ZM400.1,757.0L381.1,768.5L362.0,758.6L362.0,736.6L381.1,724.5L400.1,735.0ZM438.2,758.0L419.2,768.2L400.1,757.0L400.1,735.0L419.2,724.2L438.2,736.0ZM476.3,761.2L457.3,770.3L438.2,758.0L438.2,736.0L457.3,726.3L476.3,739.2ZM514.4,766.2L495.4,774.5L476.3,761.2L476.3,739.2L495.4,730.5L514.4,744.2ZM552.5,771.9L533.5,780.0L514.4,766.2L514.4,744.2L533.5,736.0L552.5,749.9ZM590.6,777.2L571.6,785.7L552.5,771.9L552.5,749.9L571.6,741.7L590.6,755.2ZM628.7,781.2L609.7,790.4L590.6,777.2L590.6,755.2L609.7,746.4L628.7,759.2ZM666.8,782.9L647.8,793.4L628.7,781.2L628.7,759.2L647.8,749.4L666.8,760.9ZM704.9,782.2L685.9,793.9L666.8,782.9L666.8,760.9L685.9,749.9L704.9,760.2ZM743.0,779.1L724.0,791.9L704.9,782.2L704.9,760.2L724.0,747.9L743.0,757.1ZM781.2,774.3L762.1,787.9L743.0,779.1L743.0,757.1L762.1,743.9L781.2,752.3ZM819.3,768.6L800.2,782.5L781.2,774.3L781.2,752.3L800.2,738.5L819.3,746.6ZM857.4,763.2L838.3,776.8L819.3,768.6L819.3,746.6L838.3,732.8L857.4,741.2ZM895.5,759.1L876.4,771.9L857.4,763.2L857.4,741.2L876.4,727.9L895.5,737.1ZM933.6,757.1L914.5,768.8L895.5,759.1L895.5,737.1L914.5,724.8L933.6,735.1ZM971.7,757.6L952.6,768.1L933.6,757.1L933.6,735.1L952.6,724.1L971.7,735.6ZM1009.8,760.5L990.7,769.8L971.7,757.6L971.7,735.6L990.7,725.8L1009.8,738.5ZM1047.9,765.3L1028.8,773.7L1009.8,760.5L1009.8,738.5L1028.8,729.7L1047.9,743.3ZM1086.0,770.9L1066.9,779.0L1047.9,765.3L1047.9,743.3L1066.9,735.0L1086.0,748.9ZM1124.1,776.4L1105.0,784.7L1086.0,770.9L1086.0,748.9L1105.0,740.7L1124.1,754.4ZM1162.2,780.6L1143.2,789.7L1124.1,776.4L1124.1,754.4L1143.2,745.7L1162.2,758.6ZM1200.3,782.8L1181.3,793.0L1162.2,780.6L1162.2,758.6L1181.3,749.0L1200.3,760.8ZM1238.4,782.5L1219.4,794.0L1200.3,782.8L1200.3,760.8L1219.4,750.0L1238.4,760.5ZM1276.5,779.8L1257.5,792.4L1238.4,782.5L1238.4,760.5L1257.5,748.4L1276.5,757.8ZM1314.6,775.2L1295.6,788.7L1276.5,779.8L1276.5,757.8L1295.6,744.7L1314.6,753.2ZM1352.7,769.6L1333.7,783.5L1314.6,775.2L1314.6,753.2L1333.7,739.5L1352.7,747.6ZM1390.8,764.1L1371.8,777.7L1352.7,769.6L1352.7,747.6L1371.8,733.7L1390.8,742.1ZM1428.9,759.7L1409.9,772.7L1390.8,764.1L1390.8,742.1L1409.9,728.7L1428.9,737.7ZM0.0,803.0L-19.1,811.1L-38.1,797.4L-38.1,775.4L-19.1,767.1L-0.0,781.0ZM38.1,808.6L19.1,816.9L-0.0,803.0L0.0,781.0L19.1,772.9L38.1,786.6ZM76.2,813.1L57.2,822.0L38.1,808.6L38.1,786.6L57.2,778.0L76.2,791.1ZM114.3,815.6L95.3,825.6L76.2,813.1L76.2,791.1L95.3,781.6L114.3,793.6ZM152.4,815.7L133.4,827.0L114.3,815.6L114.3,793.6L133.4,783.0L152.4,793.7ZM190.5,813.4L171.5,825.8L152.4,815.7L152.4,793.7L171.5,781.8L190.5,791.4ZM228.6,809.0L209.6,822.4L190.5,813.4L190.5,791.4L209.6,778.4L228.6,787.0ZM266.7,803.5L247.7,817.3L228.6,809.0L228.6,787.0L247.7,773.3L266.7,781.5ZM304.8,797.9L285.8,811.6L266.7,803.5L266.7,781.5L285.8,767.6L304.8,775.9ZM342.9,793.2L323.9,806.4L304.8,797.9L304.8,775.9L323.9,762.4L342.9,771.2ZM381.1,790.5L362.0,802.6L342.9,793.2L342.9,771.2L362.0,758.6L381.1,768.5ZM419.2,790.2L400.1,801.0L381.1,790.5L381.1,768.5L400.1,757.0L419.2,768.2ZM457.3,792.3L438.2,802.0L419.2,790.2L419.2,768.2L438.2,758.0L457.3,770.3ZM495.4,796.5L476.3,805.2L457.3,792.3L457.3,770.3L476.3,761.2L495.4,774.5ZM533.5,802.0L514.4,810.2L495.4,796.5L495.4,774.5L514.4,766.2L533.5,780.0ZM571.6,807.7L552.5,815.9L533.5,802.0L533.5,780.0L552.5,771.9L571.6,785.7ZM609.7,812.4L590.6,821.2L571.6,807.7L571.6,785.7L590.6,777.2L609.7,790.4ZM647.8,815.4L628.7,825.2L609.7,812.4L609.7,790.4L628.7,781.2L647.8,793.4ZM685.9,815.9L666.8,826.9L647.8,815.4L647.8,793.4L666.8,782.9L685.9,793.9ZM724.0,813.9L704.9,826.2L685.9,815.9L685.9,793.9L704.9,782.2L724.0,791.9ZM762.1,809.9L743.0,823.1L724.0,813.9L724.0,791.9L743.0,779.1L762.1,787.9ZM800.2,804.5L781.2,818.3L762.1,809.9L762.1,787.9L781.2,774.3L800.2,782.5ZM838.3,798.8L819.3,812.6L800.2,804.5L800.2,782.5L819.3,768.6L838.3,776.8ZM876.4,793.9L857.4,807.2L838.3,798.8L838.3,776.8L857.4,763.2L876.4,771.9ZM914.5,790.8L895.5,803.1L876.4,793.9L876.4,771.9L895.5,759.1L914.5,768.8ZM952.6,790.1L933.6,801.1L914.5,790.8L914.5,768.8L933.6,757.1L952.6,768.1ZM990.7,791.8L971.7,801.6L952.6,790.1L952.6,768.1L971.7,757.6L990.7,769.8ZM1028.8,795.7L1009.8,804.5L990.7,791.8L990.7,769.8L1009.8,760.5L1028.8,773.7ZM1066.9,801.0L1047.9,809.3L1028.8,795.7L1028.8,773.7L1047.9,765.3L1066.9,779.0ZM1105.0,806.7L1086.0,814.9L1066.9,801.0L1066.9,779.0L1086.0,770.9L1105.0,784.7ZM1143.2,811.7L1124.1,820.4L1105.0,806.7L1105.0,784.7L1124.1,776.4L1143.2,789.7ZM1181.3,815.0L1162.2,824.6L1143.2,811.7L1143.2,789.7L1162.2,780.6L1181.3,793.0ZM1219.4,816.0L1200.3,826.8L1181.3,815.0L1181.3,793.0L1200.3,782.8L1219.4,794.0ZM1257.5,814.4L1238.4,826.5L1219.4,816.0L1219.4,794.0L1238.4,782.5L1257.5,792.4ZM1295.6,810.7L1276.5,823.8L1257.5,814.4L1257.5,792.4L1276.5,779.8L1295.6,788.7ZM1333.7,805.5L1314.6,819.2L1295.6,810.7L1295.6,788.7L1314.6,775.2L1333.7,783.5ZM1371.8,799.7L1352.7,813.6L1333.7,805.5L1333.7,783.5L1352.7,769.6L1371.8,777.7ZM1409.9,794.7L1390.8,808.1L1371.8,799.7L1371.8,777.7L1390.8,764.1L1409.9,772.7ZM1448.0,791.2L1428.9,803.7L1409.9,794.7L1409.9,772.7L1428.9,759.7L1448.0,769.2ZM-19.1,833.1L-38.1,841.4L-57.2,828.0L-57.2,806.0L-38.1,797.4L-19.1,811.1ZM19.1,838.9L0.0,847.0L-19.1,833.1L-19.1,811.1L-0.0,803.0L19.1,816.9ZM57.2,844.0L38.1,852.6L19.1,838.9L19.1,816.9L38.1,808.6L57.2,822.0ZM95.3,847.6L76.2,857.1L57.2,844.0L57.2,822.0L76.2,813.1L95.3,825.6ZM133.4,849.0L114.3,859.6L95.3,847.6L95.3,825.6L114.3,815.6L133.4,827.0ZM171.5,847.8L152.4,859.7L133.4,849.0L133.4,827.0L152.4,815.7L171.5,825.8ZM209.6,844.4L190.5,857.4L171.5,847.8L171.5,825.8L190.5,813.4L209.6,822.4ZM247.7,839.3L228.6,853.0L209.6,844.4L209.6,822.4L228.6,809.0L247.7,817.3ZM285.8,833.6L266.7,847.5L247.7,839.3L247.7,817.3L266.7,803.5L285.8,811.6ZM323.9,828.4L304.8,841.9L285.8,833.6L285.8,811.6L304.8,797.9L323.9,806.4ZM362.0,824.6L342.9,837.2L323.9,828.4L323.9,806.4L342.9,793.2L362.0,802.6ZM400.1,823.0L381.1,834.5L362.0,824.6L362.0,802.6L381.1,790.5L400.1,801.0ZM438.2,824.0L419.2,834.2L400.1,823.0L400.1,801.0L419.2,790.2L438.2,802.0ZM476.3,827.2L457.3,836.3L438.2,824.0L438.2,802.0L457.3,792.3L476.3,805.2ZM514.4,832.2L495.4,840.5L476.3,827.2L476.3,805.2L495.4,796.5L514.4,810.2ZM552.5,837.9L533.5,846.0L514.4,832.2L514.4,810.2L533.5,802.0L552.5,815.9ZM590.6,843.2L571.6,851.7L552.5,837.9L552.5,815.9L571.6,807.7L590.6,821.2ZM628.7,847.2L609.7,856.4L590.6,843.2L590.6,821.2L609.7,812.4L628.7,825.2ZM666.8,848.9L647.8,859.4L628.7,847.2L628.7,825.2L647.8,815.4L666.8,826.9ZM704.9,848.2L685.9,859.9L666.8,848.9L666.8,826.9L685.9,815.9L704.9,826.2ZM743.0,845.1L724.0,857.9L704.9,848.2L704.9,826.2L724.0,813.9L743.0,823.1ZM781.2,840.3L762.1,853.9L743.0,845.1L743.0,823.1L762.1,809.9L781.2,818.3ZM819.3,834.6L800.2,848.5L781.2,840.3L781.2,818.3L800.2,804.5L819.3,812.6ZM857.4,829.2L838.3,842.8L819.3,834.6L819.3,812.6L838.3,798.8L857.4,807.2ZM895.5,825.1L876.4,837.9L857.4,829.2L857.4,807.2L876.4,793.9L895.5,803.1ZM933.6,823.1L914.5,834.8L895.5,825.1L895.5,803.1L914.5,790.8L933.6,801.1ZM971.7,823.6L952.6,834.1L933.6,823.1L933.6,801.1L952.6,790.1L971.7,801.6ZM1009.8,826.5L990.7,835.8L971.7,823.6L971.7,801.6L990.7,791.8L1009.8,804.5ZM1047.9,831.3L1028.8,839.7L1009.8,826.5L1009.8,804.5L1028.8,795.7L1047.9,809.3ZM1086.0,836.9L1066.9,845.0L1047.9,831.3L1047.9,809.3L1066.9,801.0L1086.0,814.9ZM1124.1,842.4L1105.0,850.7L1086.0,836.9L1086.0,814.9L1105.0,806.7L1124.1,820.4ZM1162.2,846.6L1143.2,855.7L1124.1,842.4L1124.1,820.4L1143.2,811.7L1162.2,824.6ZM1200.3,848.8L1181.3,859.0L1162.2,846.6L1162.2,824.6L1181.3,815.0L1200.3,826.8ZM1238.4,848.5L1219.4,860.0L1200.3,848.8L1200.3,826.8L1219.4,816.0L1238.4,826.5ZM1276.5,845.8L1257.5,858.4L1238.4,848.5L1238.4,826.5L1257.5,814.4L1276.5,823.8ZM1314.6,841.2L1295.6,854.7L1276.5,845.8L1276.5,823.8L1295.6,810.7L1314.6,819.2ZM1352.7,835.6L1333.7,849.5L1314.6,841.2L1314.6,819.2L1333.7,805.5L1352.7,813.6ZM1390.8,830.1L1371.8,843.7L1352.7,835.6L1352.7,813.6L1371.8,799.7L1390.8,808.1ZM1428.9,825.7L1409.9,838.7L1390.8,830.1L1390.8,808.1L1409.9,794.7L1428.9,803.7ZM0.0,869.0L-19.1,877.1L-38.1,863.4L-38.1,841.4L-19.1,833.1L-0.0,847.0ZM38.1,874.6L19.1,882.9L-0.0,869.0L0.0,847.0L19.1,838.9L38.1,852.6ZM76.2,879.1L57.2,888.0L38.1,874.6L38.1,852.6L57.2,844.0L76.2,857.1ZM114.3,881.6L95.3,891.6L76.2,879.1L76.2,857.1L95.3,847.6L114.3,859.6ZM152.4,881.7L133.4,893.0L114.3,881.6L114.3,859.6L133.4,849.0L152.4,859.7ZM190.5,879.4L171.5,891.8L152.4,881.7L152.4,859.7L171.5,847.8L190.5,857.4ZM228.6,875.0L209.6,888.4L190.5,879.4L190.5,857.4L209.6,844.4L228.6,853.0ZM266.7,869.5L247.7,883.3L228.6,875.0L228.6,853.0L247.7,839.3L266.7,847.5ZM304.8,863.9L285.8,877.6L266.7,869.5L266.7,847.5L285.8,833.6L304.8,841.9ZM342.9,859.2L323.9,872.4L304.8,863.9L304.8,841.9L323.9,828.4L342.9,837.2ZM381.1,856.5L362.0,868.6L342.9,859.2L342.9,837.2L362.0,824.6L381.1,834.5ZM419.2,856.2L400.1,867.0L381.1,856.5L381.1,834.5L400.1,823.0L419.2,834.2ZM457.3,858.3L438.2,868.0L419.2,856.2L419.2,834.2L438.2,824.0L457.3,836.3ZM495.4,862.5L476.3,871.2L457.3,858.3L457.3,836.3L476.3,827.2L495.4,840.5ZM533.5,868.0L514.4,876.2L495.4,862.5L495.4,840.5L514.4,832.2L533.5,846.0ZM571.6,873.7L552.5,881.9L533.5,868.0L533.5,846.0L552.5,837.9L571.6,851.7ZM609.7,878.4L590.6,887.2L571.6,873.7L571.6,851.7L590.6,843.2L609.7,856.4ZM647.8,881.4L628.7,891.2L609.7,878.4L609.7,856.4L628.7,847.2L647.8,859.4ZM685.9,881.9L666.8,892.9L647.8,881.4L647.8,859.4L666.8,848.9L685.9,859.9ZM724.0,879.9L704.9,892.2L685.9,881.9L685.9,859.9L704.9,848.2L724.0,857.9ZM762.1,875.9L743.0,889.1L724.0,879.9L724.0,857.9L743.0,845.1L762.1,853.9ZM800.2,870.5L781.2,884.3L762.1,875.9L762.1,853.9L781.2,840.3L800.2,848.5ZM838.3,864.8L819.3,878.6L800.2,870.5L800.2,848.5L819.3,834.6L838.3,842.8ZM876.4,859.9L857.4,873.2L838.3,864.8L838.3,842.8L857.4,829.2L876.4,837.9ZM914.5,856.8L895.5,869.1L876.4,859.9L876.4,837.9L895.5,825.1L914.5,834.8ZM952.6,856.1L933.6,867.1L914.5,856.8L914.5,834.8L933.6,823.1L952.6,834.1ZM990.7,857.8L971.7,867.6L952.6,856.1L952.6,834.1L971.7,823.6L990.7,835.8ZM1028.8,861.7L1009.8,870.5L990.7,857.8L990.7,835.8L1009.8,826.5L1028.8,839.7ZM1066.9,867.0L1047.9,875.3L1028.8,861.7L1028.8,839.7L1047.9,831.3L1066.9,845.0ZM1105.0,872.7L1086.0,880.9L1066.9,867.0L1066.9,845.0L1086.0,836.9L1105.0,850.7ZM1143.2,877.7L1124.1,886.4L1105.0,872.7L1105.0,850.7L1124.1,842.4L1143.2,855.7ZM1181.3,881.0L1162.2,890.6L1143.2,877.7L1143.2,855.7L1162.2,846.6L1181.3,859.0ZM1219.4,882.0L1200.3,892.8L1181.3,881.0L1181.3,859.0L1200.3,848.8L1219.4,860.0ZM1257.5,880.4L1238.4,892.5L1219.4,882.0L1219.4,860.0L1238.4,848.5L1257.5,858.4ZM1295.6,876.7L1276.5,889.8L1257.5,880.4L1257.5,858.4L1276.5,845.8L1295.6,854.7ZM1333.7,871.5L1314.6,885.2L1295.6,876.7L1295.6,854.7L1314.6,841.2L1333.7,849.5ZM1371.8,865.7L1352.7,879.6L1333.7,871.5L1333.7,849.5L1352.7,835.6L1371.8,843.7ZM1409.9,860.7L1390.8,874.1L1371.8,865.7L1371.8,843.7L1390.8,830.1L1409.9,838.7ZM1448.0,857.2L1428.9,869.7L1409.9,860.7L1409.9,838.7L1428.9,825.7L1448.0,835.2ZM-19.1,899.1L-38.1,907.4L-57.2,894.0L-57.2,872.0L-38.1,863.4L-19.1,877.1ZM19.1,904.9L0.0,913.0L-19.1,899.1L-19.1,877.1L-0.0,869.0L19.1,882.9ZM57.2,910.0L38.1,918.6L19.1,904.9L19.1,882.9L38.1,874.6L57.2,888.0ZM95.3,913.6L76.2,923.1L57.2,910.0L57.2,888.0L76.2,879.1L95.3,891.6ZM133.4,915.0L114.3,925.6L95.3,913.6L95.3,891.6L114.3,881.6L133.4,893.0ZM171.5,913.8L152.4,925.7L133.4,915.0L133.4,893.0L152.4,881.7L171.5,891.8ZM209.6,910.4L190.5,923.4L171.5,913.8L171.5,891.8L190.5,879.4L209.6,888.4ZM247.7,905.3L228.6,919.0L209.6,910.4L209.6,888.4L228.6,875.0L247.7,883.3ZM285.8,899.6L266.7,913.5L247.7,905.3L247.7,883.3L266.7,869.5L285.8,877.6ZM323.9,894.4L304.8,907.9L285.8,899.6L285.8,877.6L304.8,863.9L323.9,872.4ZM362.0,890.6L342.9,903.2L323.9,894.4L323.9,872.4L342.9,859.2L362.0,868.6ZM400.1,889.0L381.1,900.5L362.0,890.6L362.0,868.6L381.1,856.5L400.1,867.0ZM438.2,890.0L419.2,900.2L400.1,889.0L400.1,867.0L419.2,856.2L438.2,868.0ZM476.3,893.2L457.3,902.3L438.2,890.0L438.2,868.0L457.3,858.3L476.3,871.2ZM514.4,898.2L495.4,906.5L476.3,893.2L476.3,871.2L495.4,862.5L514.4,876.2ZM552.5,903.9L533.5,912.0L514.4,898.2L514.4,876.2L533.5,868.0L552.5,881.9ZM590.6,909.2L571.6,917.7L552.5,903.9L552.5,881.9L571.6,873.7L590.6,887.2ZM628.7,913.2L609.7,922.4L590.6,909.2L590.6,887.2L609.7,878.4L628.7,891.2ZM666.8,914.9L647.8,925.4L628.7,913.2L628.7,891.2L647.8,881.4L666.8,892.9ZM704.9,914.2L685.9,925.9L666.8,914.9L666.8,892.9L685.9,881.9L704.9,892.2ZM743.0,911.1L724.0,923.9L704.9,914.2L704.9,892.2L724.0,879.9L743.0,889.1ZM781.2,906.3L762.1,919.9L743.0,911.1L743.0,889.1L762.1,875.9L781.2,884.3ZM819.3,900.6L800.2,914.5L781.2,906.3L781.2,884.3L800.2,870.5L819.3,878.6ZM857.4,895.2L838.3,908.8L819.3,900.6L819.3,878.6L838.3,864.8L857.4,873.2ZM895.5,891.1L876.4,903.9L857.4,895.2L857.4,873.2L876.4,859.9L895.5,869.1ZM933.6,889.1L914.5,900.8L895.5,891.1L895.5,869.1L914.5,856.8L933.6,867.1ZM971.7,889.6L952.6,900.1L933.6,889.1L933.6,867.1L952.6,856.1L971.7,867.6ZM1009.8,892.5L990.7,901.8L971.7,889.6L971.7,867.6L990.7,857.8L1009.8,870.5ZM1047.9,897.3L1028.8,905.7L1009.8,892.5L1009.8,870.5L1028.8,861.7L1047.9,875.3ZM1086.0,902.9L1066.9,911.0L1047.9,897.3L1047.9,875.3L1066.9,867.0L1086.0,880.9ZM1124.1,908.4L1105.0,916.7L1086.0,902.9L1086.0,880.9L1105.0,872.7L1124.1,886.4ZM1162.2,912.6L1143.2,921.7L1124.1,908.4L1124.1,886.4L1143.2,877.7L1162.2,890.6ZM1200.3,914.8L1181.3,925.0L1162.2,912.6L1162.2,890.6L1181.3,881.0L1200.3,892.8ZM1238.4,914.5L1219.4,926.0L1200.3,914.8L1200.3,892.8L1219.4,882.0L1238.4,892.5ZM1276.5,911.8L1257.5,924.4L1238.4,914.5L1238.4,892.5L1257.5,880.4L1276.5,889.8ZM1314.6,907.2L1295.6,920.7L1276.5,911.8L1276.5,889.8L1295.6,876.7L1314.6,885.2ZM1352.7,901.6L1333.7,915.5L1314.6,907.2L1314.6,885.2L1333.7,871.5L1352.7,879.6ZM1390.8,896.1L1371.8,909.7L1352.7,901.6L1352.7,879.6L1371.8,865.7L1390.8,874.1ZM1428.9,891.7L1409.9,904.7L1390.8,896.1L1390.8,874.1L1409.9,860.7L1428.9,869.7ZM0.0,935.0L-19.1,943.1L-38.1,929.4L-38.1,907.4L-19.1,899.1L-0.0,913.0ZM38.1,940.6L19.1,948.9L-0.0,935.0L0.0,913.0L19.1,904.9L38.1,918.6ZM76.2,945.1L57.2,954.0L38.1,940.6L38.1,918.6L57.2,910.0L76.2,923.1ZM114.3,947.6L95.3,957.6L76.2,945.1L76.2,923.1L95.3,913.6L114.3,925.6ZM152.4,947.7L133.4,959.0L114.3,947.6L114.3,925.6L133.4,915.0L152.4,925.7ZM190.5,945.4L171.5,957.8L152.4,947.7L152.4,925.7L171.5,913.8L190.5,923.4ZM228.6,941.0L209.6,954.4L190.5,945.4L190.5,923.4L209.6,910.4L228.6,919.0ZM266.7,935.5L247.7,949.3L228.6,941.0L228.6,919.0L247.7,905.3L266.7,913.5ZM304.8,929.9L285.8,943.6L266.7,935.5L266.7,913.5L285.8,899.6L304.8,907.9ZM342.9,925.2L323.9,938.4L304.8,929.9L304.8,907.9L323.9,894.4L342.9,903.2ZM381.1,922.5L362.0,934.6L342.9,925.2L342.9,903.2L362.0,890.6L381.1,900.5ZM419.2,922.2L400.1,933.0L381.1,922.5L381.1,900.5L400.1,889.0L419.2,900.2ZM457.3,924.3L438.2,934.0L419.2,922.2L419.2,900.2L438.2,890.0L457.3,902.3ZM495.4,928.5L476.3,937.2L457.3,924.3L457.3,902.3L476.3,893.2L495.4,906.5ZM533.5,934.0L514.4,942.2L495.4,928.5L495.4,906.5L514.4,898.2L533.5,912.0ZM571.6,939.7L552.5,947.9L533.5,934.0L533.5,912.0L552.5,903.9L571.6,917.7ZM609.7,944.4L590.6,953.2L571.6,939.7L571.6,917.7L590.6,909.2L609.7,922.4ZM647.8,947.4L628.7,957.2L609.7,944.4L609.7,922.4L628.7,913.2L647.8,925.4ZM685.9,947.9L666.8,958.9L647.8,947.4L647.8,925.4L666.8,914.9L685.9,925.9ZM724.0,945.9L704.9,958.2L685.9,947.9L685.9,925.9L704.9,914.2L724.0,923.9ZM762.1,941.9L743.0,955.1L724.0,945.9L724.0,923.9L743.0,911.1L762.1,919.9ZM800.2,936.5L781.2,950.3L762.1,941.9L762.1,919.9L781.2,906.3L800.2,914.5ZM838.3,930.8L819.3,944.6L800.2,936.5L800.2,914.5L819.3,900.6L838.3,908.8ZM876.4,925.9L857.4,939.2L838.3,930.8L838.3,908.8L857.4,895.2L876.4,903.9ZM914.5,922.8L895.5,935.1L876.4,925.9L876.4,903.9L895.5,891.1L914.5,900.8ZM952.6,922.1L933.6,933.1L914.5,922.8L914.5,900.8L933.6,889.1L952.6,900.1ZM990.7,923.8L971.7,933.6L952.6,922.1L952.6,900.1L971.7,889.6L990.7,901.8ZM1028.8,927.7L1009.8,936.5L990.7,923.8L990.7,901.8L1009.8,892.5L1028.8,905.7ZM1066.9,933.0L1047.9,941.3L1028.8,927.7L1028.8,905.7L1047.9,897.3L1066.9,911.0ZM1105.0,938.7L1086.0,946.9L1066.9,933.0L1066.9,911.0L1086.0,902.9L1105.0,916.7ZM1143.2,943.7L1124.1,952.4L1105.0,938.7L1105.0,916.7L1124.1,908.4L1143.2,921.7ZM1181.3,947.0L1162.2,956.6L1143.2,943.7L1143.2,921.7L1162.2,912.6L1181.3,925.0ZM1219.4,948.0L1200.3,958.8L1181.3,947.0L1181.3,925.0L1200.3,914.8L1219.4,926.0ZM1257.5,946.4L1238.4,958.5L1219.4,948.0L1219.4,926.0L1238.4,914.5L1257.5,924.4ZM1295.6,942.7L1276.5,955.8L1257.5,946.4L1257.5,924.4L1276.5,911.8L1295.6,920.7ZM1333.7,937.5L1314.6,951.2L1295.6,942.7L1295.6,920.7L1314.6,907.2L1333.7,915.5ZM1371.8,931.7L1352.7,945.6L1333.7,937.5L1333.7,915.5L1352.7,901.6L1371.8,909.7ZM1409.9,926.7L1390.8,940.1L1371.8,931.7L1371.8,909.7L1390.8,896.1L1409.9,904.7ZM1448.0,923.2L1428.9,935.7L1409.9,926.7L1409.9,904.7L1428.9,891.7L1448.0,901.2Z" fill="none" stroke="#6cc0b0" stroke-width="1" stroke-linejoin="round"/></svg>
